g Ring02
v 4.24006458E-07 1.09181046 0.21135065
v 0.371788323 0.897575974 0.40241462
v -4.80337414E-09 0.971529245 0.40241462
v 0.417818129 1.0087018 0.21135065
v -1.51906416E-08 1.21800745 7.54978942E-08
v 0.466111422 1.12529218 7.54978942E-08
v -0 0.382683396 0.896502376
v 0.146446735 0.353553355 0.896502376
v 0.0746579617 0.180239901 0.945682943
v -0 0.195090294 0.945682943
v -0 0.555570185 0.813520432
v 0.212607637 0.513279915 0.813520432
v 0.146446735 0.353553355 0.896502376
v -0 0.382683396 0.896502376
v 3.18490038E-07 0.707360208 0.698117554
v 0.270695269 0.653515935 0.698117614
v 0.212607637 0.513279915 0.813520432
v -0 0.555570185 0.813520432
v -1.7121492E-09 0.846755326 0.563071609
v 0.3240394 0.782299876 0.563071609
v 0.270695269 0.653515935 0.698117614
v 3.18490038E-07 0.707360208 0.698117554
v -4.80337414E-09 0.971529245 0.40241462
v 0.371788323 0.897575974 0.40241462
v 0.3240394 0.782299876 0.563071609
v -1.7121492E-09 0.846755326 0.563071609
v 0.371788323 0.897575974 0.40241462
v 0.686975241 0.686974883 0.40241462
v 0.598746717 0.598746359 0.563071609
v 0.3240394 0.782299876 0.563071609
v 0.417818129 1.0087018 0.21135065
v 0.686975241 0.686974883 0.40241462
v 0.371788323 0.897575974 0.40241462
v 0.772027135 0.772026777 0.21135065
v 0.466111422 1.12529218 7.54978942E-08
v 0.861261606 0.861261249 7.54978942E-08
v 0.146446735 0.353553355 0.896502376
v 0.270598263 0.270597905 0.896502376
v 0.137949899 0.137949556 0.945682943
v 0.0746579617 0.180239901 0.945682943
v 0.212607637 0.513279915 0.813520432
v 0.392847657 0.392847329 0.813520432
v 0.270598263 0.270597905 0.896502376
v 0.146446735 0.353553355 0.896502376
v 0.270695269 0.653515935 0.698117614
v 0.500179648 0.500179291 0.698117614
v 0.392847657 0.392847329 0.813520432
v 0.212607637 0.513279915 0.813520432
v 0.3240394 0.782299876 0.563071609
v 0.598746717 0.598746359 0.563071609
v 0.500179648 0.500179291 0.698117614
v 0.270695269 0.653515935 0.698117614
v 0.392847657 0.392847329 0.813520432
v 0.513280213 0.212607265 0.813520432
v 0.353553653 0.146446347 0.896502376
v 0.270598263 0.270597905 0.896502376
v 0.500179648 0.500179291 0.698117614
v 0.653516233 0.270694882 0.698117614
v 0.513280213 0.212607265 0.813520432
v 0.392847657 0.392847329 0.813520432
v 0.598746717 0.598746359 0.563071609
v 0.782300234 0.324039012 0.563071549
v 0.653516233 0.270694882 0.698117614
v 0.500179648 0.500179291 0.698117614
v 0.686975241 0.686974883 0.40241462
v 0.897576332 0.371787935 0.40241462
v 0.782300234 0.324039012 0.563071549
v 0.598746717 0.598746359 0.563071609
v 0.772027135 0.772026777 0.21135065
v 0.897576332 0.371787935 0.40241462
v 0.686975241 0.686974883 0.40241462
v 1.00870228 0.417817712 0.21135065
v 0.861261606 0.861261249 7.54978942E-08
v 1.12529266 0.466111004 7.54978942E-08
v 0.270598263 0.270597905 0.896502376
v 0.353553653 0.146446347 0.896502376
v 0.180240214 0.0746576041 0.945682943
v 0.137949899 0.137949556 0.945682943
v 1.00870228 0.417817712 0.21135065
v 0.971529603 -3.91011383E-07 0.40241462
v 0.897576332 0.371787935 0.40241462
v 1.0918113 -3.98775001E-07 0.21135065
v 1.12529266 0.466111004 7.54978942E-08
v 1.2180078 -4.92116612E-07 7.54978942E-08
v 0.353553653 0.146446347 0.896502376
v 0.382683665 -3.82431011E-07 0.896502376
v 0.195090577 -3.45178137E-07 0.945682943
v 0.180240214 0.0746576041 0.945682943
v 0.513280213 0.212607265 0.813520432
v 0.555570483 -3.82431011E-07 0.813520432
v 0.382683665 -3.82431011E-07 0.896502376
v 0.353553653 0.146446347 0.896502376
v 0.653516233 0.270694882 0.698117614
v 0.707360804 -3.9739723E-07 0.698117614
v 0.555570483 -3.82431011E-07 0.813520432
v 0.513280213 0.212607265 0.813520432
v 0.782300234 0.324039012 0.563071549
v 0.846755564 -4.15839679E-07 0.563071549
v 0.707360804 -3.9739723E-07 0.698117614
v 0.653516233 0.270694882 0.698117614
v 0.897576332 0.371787935 0.40241462
v 0.971529603 -3.91011383E-07 0.40241462
v 0.846755564 -4.15839679E-07 0.563071549
v 0.782300234 0.324039012 0.563071549
v 0.555570483 -3.82431011E-07 0.813520432
v 0.513280153 -0.21260801 0.813520372
v 0.353553593 -0.146447107 0.896502376
v 0.382683665 -3.82431011E-07 0.896502376
v 0.707360804 -3.9739723E-07 0.698117614
v 0.653516114 -0.270695627 0.698117554
v 0.513280153 -0.21260801 0.813520372
v 0.555570483 -3.82431011E-07 0.813520432
v 0.846755564 -4.15839679E-07 0.563071549
v 0.782300055 -0.324039787 0.563071549
v 0.653516114 -0.270695627 0.698117554
v 0.707360804 -3.9739723E-07 0.698117614
v 0.971529603 -3.91011383E-07 0.40241462
v 0.897576272 -0.37178871 0.40241462
v 0.782300055 -0.324039787 0.563071549
v 0.846755564 -4.15839679E-07 0.563071549
v 1.0918113 -3.98775001E-07 0.21135065
v 0.897576272 -0.37178871 0.40241462
v 0.971529603 -3.91011383E-07 0.40241462
v 1.00870216 -0.417818487 0.21135065
v 1.2180078 -4.92116612E-07 7.54978942E-08
v 1.12529242 -0.466111958 7.54978942E-08
v 0.382683665 -3.82431011E-07 0.896502376
v 0.353553593 -0.146447107 0.896502376
v 0.180240184 -0.0746582821 0.945682943
v 0.195090577 -3.45178137E-07 0.945682943
v 1.00870216 -0.417818487 0.21135065
v 0.686975062 -0.686975598 0.40241462
v 0.897576272 -0.37178871 0.40241462
v 0.772026956 -0.772027493 0.21135065
v 1.12529242 -0.466111958 7.54978942E-08
v 0.861261368 -0.861262083 7.54978942E-08
v 0.353553593 -0.146447107 0.896502376
v 0.270598143 -0.27059859 0.896502376
v 0.137949839 -0.137950227 0.945682943
v 0.180240184 -0.0746582821 0.945682943
v 0.513280153 -0.21260801 0.813520372
v 0.392847538 -0.392848045 0.813520372
v 0.270598143 -0.27059859 0.896502376
v 0.353553593 -0.146447107 0.896502376
v 0.653516114 -0.270695627 0.698117554
v 0.50017947 -0.500179887 0.698117554
v 0.392847538 -0.392848045 0.813520372
v 0.513280153 -0.21260801 0.813520372
v 0.782300055 -0.324039787 0.563071549
v 0.598746419 -0.598747015 0.563071549
v 0.50017947 -0.500179887 0.698117554
v 0.653516114 -0.270695627 0.698117554
v 0.897576272 -0.37178871 0.40241462
v 0.686975062 -0.686975598 0.40241462
v 0.598746419 -0.598747015 0.563071549
v 0.782300055 -0.324039787 0.563071549
v 0.50017947 -0.500179887 0.698117554
v 0.27069512 -0.653516412 0.698117554
v 0.212607473 -0.513280511 0.813520372
v 0.392847538 -0.392848045 0.813520372
v 0.598746419 -0.598747015 0.563071549
v 0.324039072 -0.782300413 0.563071549
v 0.27069512 -0.653516412 0.698117554
v 0.50017947 -0.500179887 0.698117554
v 0.686975062 -0.686975598 0.40241462
v 0.371788085 -0.89757663 0.40241462
v 0.324039072 -0.782300413 0.563071549
v 0.598746419 -0.598747015 0.563071549
v 0.772026956 -0.772027493 0.21135065
v 0.371788085 -0.89757663 0.40241462
v 0.686975062 -0.686975598 0.40241462
v 0.417817891 -1.00870252 0.21135065
v 0.861261368 -0.861262083 7.54978942E-08
v 0.466111094 -1.12529278 7.54978942E-08
v 0.270598143 -0.27059859 0.896502376
v 0.146446601 -0.353553951 0.896502376
v 0.0746578798 -0.180240557 0.945682943
v 0.137949839 -0.137950227 0.945682943
v 0.392847538 -0.392848045 0.813520372
v 0.212607473 -0.513280511 0.813520372
v 0.146446601 -0.353553951 0.896502376
v 0.270598143 -0.27059859 0.896502376
v 0.466111094 -1.12529278 7.54978942E-08
v -2.9890569E-07 -1.21800792 7.54978942E-08
v -1.73161041E-07 -1.09181142 0.21135065
v 0.417817891 -1.00870252 0.21135065
v -2.18411458E-07 -0.971529841 0.40241462
v 0.371788085 -0.89757663 0.40241462
v 0.146446601 -0.353553951 0.896502376
v -1.13724468E-07 -0.382683933 0.896502376
v -6.90209916E-08 -0.195090905 0.945682943
v 0.0746578798 -0.180240557 0.945682943
v 0.212607473 -0.513280511 0.813520372
v -1.4352679E-07 -0.555570722 0.813520372
v -1.13724468E-07 -0.382683933 0.896502376
v 0.146446601 -0.353553951 0.896502376
v 0.27069512 -0.653516412 0.698117554
v -8.39857108E-08 -0.707360983 0.698117554
v -1.4352679E-07 -0.555570722 0.813520372
v 0.212607473 -0.513280511 0.813520372
v 0.324039072 -0.782300413 0.563071549
v -2.38928152E-07 -0.846755683 0.563071549
v -8.39857108E-08 -0.707360983 0.698117554
v 0.27069512 -0.653516412 0.698117554
v 0.371788085 -0.89757663 0.40241462
v -2.18411458E-07 -0.971529841 0.40241462
v -2.38928152E-07 -0.846755683 0.563071549
v 0.324039072 -0.782300413 0.563071549
v -2.38928152E-07 -0.846755683 0.563071549
v -0.324039519 -0.782300174 0.563071549
v -0.270695299 -0.653516233 0.698117554
v -8.39857108E-08 -0.707360983 0.698117554
v -2.18411458E-07 -0.971529841 0.40241462
v -0.371788472 -0.897576451 0.40241462
v -0.324039519 -0.782300174 0.563071549
v -2.38928152E-07 -0.846755683 0.563071549
v -1.73161041E-07 -1.09181142 0.21135065
v -0.371788472 -0.897576451 0.40241462
v -2.18411458E-07 -0.971529841 0.40241462
v -0.417818189 -1.00870216 0.21135065
v -2.9890569E-07 -1.21800792 7.54978942E-08
v -0.46611163 -1.12529254 7.54978942E-08
v -1.13724468E-07 -0.382683933 0.896502376
v -0.146446809 -0.353553861 0.896502376
v -0.0746580064 -0.180240497 0.945682943
v -6.90209916E-08 -0.195090905 0.945682943
v -1.4352679E-07 -0.555570722 0.813520372
v -0.212607726 -0.513280332 0.813520372
v -0.146446809 -0.353553861 0.896502376
v -1.13724468E-07 -0.382683933 0.896502376
v -8.39857108E-08 -0.707360983 0.698117554
v -0.270695299 -0.653516233 0.698117554
v -0.212607726 -0.513280332 0.813520372
v -1.4352679E-07 -0.555570722 0.813520372
v -0.146446809 -0.353553861 0.896502376
v -0.270598292 -0.270598412 0.896502376
v -0.137949929 -0.137950152 0.945682943
v -0.0746580064 -0.180240497 0.945682943
v -0.212607726 -0.513280332 0.813520372
v -0.392847687 -0.392847717 0.813520372
v -0.270598292 -0.270598412 0.896502376
v -0.146446809 -0.353553861 0.896502376
v -0.270695299 -0.653516233 0.698117554
v -0.500179529 -0.500179529 0.698117554
v -0.392847687 -0.392847717 0.813520372
v -0.212607726 -0.513280332 0.813520372
v -0.324039519 -0.782300174 0.563071549
v -0.598746717 -0.598746479 0.563071549
v -0.500179529 -0.500179529 0.698117554
v -0.270695299 -0.653516233 0.698117554
v -0.371788472 -0.897576451 0.40241462
v -0.6869753 -0.686975241 0.40241462
v -0.598746717 -0.598746479 0.563071549
v -0.324039519 -0.782300174 0.563071549
v -0.417818189 -1.00870216 0.21135065
v -0.6869753 -0.686975241 0.40241462
v -0.371788472 -0.897576451 0.40241462
v -0.772027075 -0.772027016 0.21135065
v -0.46611163 -1.12529254 7.54978942E-08
v -0.861261666 -0.861261487 7.54978942E-08
v -0.598746717 -0.598746479 0.563071549
v -0.782300055 -0.324039161 0.563071549
v -0.653515995 -0.270695239 0.698117554
v -0.500179529 -0.500179529 0.698117554
v -0.6869753 -0.686975241 0.40241462
v -0.897576272 -0.371788234 0.40241462
v -0.782300055 -0.324039161 0.563071549
v -0.598746717 -0.598746479 0.563071549
v -0.772027075 -0.772027016 0.21135065
v -0.897576272 -0.371788234 0.40241462
v -0.6869753 -0.686975241 0.40241462
v -1.0087018 -0.41781795 0.21135065
v -0.861261666 -0.861261487 7.54978942E-08
v -1.12529242 -0.466111273 7.54978942E-08
v -0.270598292 -0.270598412 0.896502376
v -0.353553623 -0.146446869 0.896502376
v -0.180240229 -0.0746581852 0.945682943
v -0.137949929 -0.137950152 0.945682943
v -0.392847687 -0.392847717 0.813520372
v -0.513280153 -0.212607667 0.813520372
v -0.353553623 -0.146446869 0.896502376
v -0.270598292 -0.270598412 0.896502376
v -0.500179529 -0.500179529 0.698117554
v -0.653515995 -0.270695239 0.698117554
v -0.513280153 -0.212607667 0.813520372
v -0.392847687 -0.392847717 0.813520372
v -0.353553623 -0.146446869 0.896502376
v -0.382683575 -1.73814797E-07 0.896502376
v -0.195090577 -2.40870008E-07 0.945682943
v -0.180240229 -0.0746581852 0.945682943
v -0.513280153 -0.212607667 0.813520372
v -0.555570364 -6.9506676E-08 0.813520372
v -0.382683575 -1.73814797E-07 0.896502376
v -0.353553623 -0.146446869 0.896502376
v -0.653515995 -0.270695239 0.698117554
v -0.707360506 -8.43605719E-08 0.698117554
v -0.555570364 -6.9506676E-08 0.813520372
v -0.513280153 -0.212607667 0.813520372
v -0.782300055 -0.324039161 0.563071549
v -0.846755326 1.0011383E-07 0.563071549
v -0.707360506 -8.43605719E-08 0.698117554
v -0.653515995 -0.270695239 0.698117554
v -0.897576272 -0.371788234 0.40241462
v -0.971529484 4.77401798E-08 0.40241462
v -0.846755326 1.0011383E-07 0.563071549
v -0.782300055 -0.324039161 0.563071549
v -1.0087018 -0.41781795 0.21135065
v -0.971529484 4.77401798E-08 0.40241462
v -0.897576272 -0.371788234 0.40241462
v -1.09181082 -3.38393669E-08 0.21135065
v -1.12529242 -0.466111273 7.54978942E-08
v -1.21800756 1.24973994E-07 7.54978942E-08
v -0.971529484 4.77401798E-08 0.40241462
v -0.897575974 0.371788263 0.40241462
v -0.782299697 0.32403934 0.563071549
v -0.846755326 1.0011383E-07 0.563071549
v -1.09181082 -3.38393669E-08 0.21135065
v -0.897575974 0.371788263 0.40241462
v -0.971529484 4.77401798E-08 0.40241462
v -1.00870156 0.417817891 0.21135065
v -1.21800756 1.24973994E-07 7.54978942E-08
v -1.12529218 0.466111451 7.54978942E-08
v -0.382683575 -1.73814797E-07 0.896502376
v -0.353553474 0.146446481 0.896502376
v -0.180240169 0.0746576935 0.945682943
v -0.195090577 -2.40870008E-07 0.945682943
v -0.555570364 -6.9506676E-08 0.813520372
v -0.513279974 0.212607488 0.813520372
v -0.353553474 0.146446481 0.896502376
v -0.382683575 -1.73814797E-07 0.896502376
v -0.707360506 -8.43605719E-08 0.698117554
v -0.653515816 0.270695031 0.698117554
v -0.513279974 0.212607488 0.813520372
v -0.555570364 -6.9506676E-08 0.813520372
v -0.846755326 1.0011383E-07 0.563071549
v -0.782299697 0.32403934 0.563071549
v -0.653515816 0.270695031 0.698117554
v -0.707360506 -8.43605719E-08 0.698117554
v -0.353553474 0.146446481 0.896502376
v -0.270598054 0.270597935 0.896502376
v -0.137949809 0.137949601 0.945682943
v -0.180240169 0.0746576935 0.945682943
v -0.513279974 0.212607488 0.813520372
v -0.392847329 0.392847419 0.813520372
v -0.270598054 0.270597935 0.896502376
v -0.353553474 0.146446481 0.896502376
v -0.653515816 0.270695031 0.698117554
v -0.500179172 0.500179231 0.698117554
v -0.392847329 0.392847419 0.813520372
v -0.513279974 0.212607488 0.813520372
v -0.782299697 0.32403934 0.563071549
v -0.598746002 0.598746479 0.563071549
v -0.500179172 0.500179231 0.698117554
v -0.653515816 0.270695031 0.698117554
v -0.897575974 0.371788263 0.40241462
v -0.686974764 0.686975062 0.40241462
v -0.598746002 0.598746479 0.563071549
v -0.782299697 0.32403934 0.563071549
v -1.00870156 0.417817891 0.21135065
v -0.686974764 0.686975062 0.40241462
v -0.897575974 0.371788263 0.40241462
v -0.772026539 0.772026658 0.21135065
v -1.12529218 0.466111451 7.54978942E-08
v -0.86126107 0.861261368 7.54978942E-08
v -0.686974764 0.686975062 0.40241462
v -0.371787757 0.897576034 0.40241462
v -0.324038714 0.782299757 0.563071549
v -0.598746002 0.598746479 0.563071549
v -0.772026539 0.772026658 0.21135065
v -0.371787757 0.897576034 0.40241462
v -0.686974764 0.686975062 0.40241462
v -0.417817563 1.00870144 0.21135065
v -0.86126107 0.861261368 7.54978942E-08
v -0.466110796 1.1252923 7.54978942E-08
v -0.270598054 0.270597935 0.896502376
v -0.146446541 0.353553265 0.896502376
v -0.07465785 0.180239901 0.945682943
v -0.137949809 0.137949601 0.945682943
v -0.392847329 0.392847419 0.813520372
v -0.212607265 0.513279855 0.813520432
v -0.146446541 0.353553265 0.896502376
v -0.270598054 0.270597935 0.896502376
v -0.500179172 0.500179231 0.698117554
v -0.270694852 0.653515697 0.698117554
v -0.212607265 0.513279855 0.813520432
v -0.392847329 0.392847419 0.813520372
v -0.598746002 0.598746479 0.563071549
v -0.324038714 0.782299757 0.563071549
v -0.270694852 0.653515697 0.698117554
v -0.500179172 0.500179231 0.698117554
v -0.212607265 0.513279855 0.813520432
v -0 0.555570185 0.813520432
v -0 0.382683396 0.896502376
v -0.146446541 0.353553265 0.896502376
v -0.270694852 0.653515697 0.698117554
v 3.18490038E-07 0.707360208 0.698117554
v -0 0.555570185 0.813520432
v -0.212607265 0.513279855 0.813520432
v -0.324038714 0.782299757 0.563071549
v -1.7121492E-09 0.846755326 0.563071609
v 3.18490038E-07 0.707360208 0.698117554
v -0.270694852 0.653515697 0.698117554
v -0.371787757 0.897576034 0.40241462
v -4.80337414E-09 0.971529245 0.40241462
v -1.7121492E-09 0.846755326 0.563071609
v -0.324038714 0.782299757 0.563071549
v -0.417817563 1.00870144 0.21135065
v -4.80337414E-09 0.971529245 0.40241462
v -0.371787757 0.897576034 0.40241462
v 4.24006458E-07 1.09181046 0.21135065
v -0.466110796 1.1252923 7.54978942E-08
v -1.51906416E-08 1.21800745 7.54978942E-08
v -0.146446541 0.353553265 0.896502376
v -0 0.382683396 0.896502376
v -0 0.195090294 0.945682943
v -0.07465785 0.180239901 0.945682943
v -0.137949809 0.137949601 0.945682943
v -0.07465785 0.180239901 0.945682943
v -1.24694083E-07 -6.26879398E-07 0.961689949
v -0 0.195090294 0.945682943
v -0.180240169 0.0746576935 0.945682943
v -1.24694083E-07 -6.26879398E-07 0.961689949
v -0.195090577 -2.40870008E-07 0.945682943
v 0.0746579617 0.180239901 0.945682943
v -1.24694083E-07 -6.26879398E-07 0.961689949
v 0.137949899 0.137949556 0.945682943
v -0.180240229 -0.0746581852 0.945682943
v -1.24694083E-07 -6.26879398E-07 0.961689949
v -0.137949929 -0.137950152 0.945682943
v 0.180240214 0.0746576041 0.945682943
v -1.24694083E-07 -6.26879398E-07 0.961689949
v 0.195090577 -3.45178137E-07 0.945682943
v -0.0746580064 -0.180240497 0.945682943
v -1.24694083E-07 -6.26879398E-07 0.961689949
v -6.90209916E-08 -0.195090905 0.945682943
v 0.180240184 -0.0746582821 0.945682943
v -1.24694083E-07 -6.26879398E-07 0.961689949
v 0.137949839 -0.137950227 0.945682943
v 0.0746578798 -0.180240557 0.945682943
v -1.24694083E-07 -6.26879398E-07 0.961689949
vt 0.422959059 0.903122544
vt 0.56670469 0.822233319
vt 0.438512176 0.821993351
vt 0.582974613 0.900837839
vt 0.403677553 0.999900103
vt 0.602197289 0.997224331
vt 0.482234597 0.597717345
vt 0.521246254 0.597102046
vt 0.510861695 0.548260748
vt 0.491390258 0.548615992
vt 0.472893178 0.647346616
vt 0.531570554 0.647159278
vt 0.521246254 0.597102046
vt 0.482234597 0.597717345
vt 0.462919503 0.700151801
vt 0.542498112 0.699227393
vt 0.531570554 0.647159278
vt 0.472893178 0.647346616
vt 0.451613277 0.757219434
vt 0.55387187 0.756558955
vt 0.542498112 0.699227393
vt 0.462919503 0.700151801
vt 0.438512176 0.821993351
vt 0.56670469 0.822233319
vt 0.55387187 0.756558955
vt 0.451613277 0.757219434
vt 0.56670469 0.822233319
vt 0.684681833 0.771624386
vt 0.647901595 0.716359198
vt 0.55387187 0.756558955
vt 0.582974613 0.900837839
vt 0.684681833 0.771624386
vt 0.56670469 0.822233319
vt 0.7294994 0.838998616
vt 0.602197289 0.997224331
vt 0.783633888 0.920614362
vt 0.521246254 0.597102046
vt 0.556990027 0.581561565
vt 0.528707743 0.540471852
vt 0.510861695 0.548260748
vt 0.531570554 0.647159278
vt 0.5856148 0.623655736
vt 0.556990027 0.581561565
vt 0.521246254 0.597102046
vt 0.542498112 0.699227393
vt 0.6154719 0.66789943
vt 0.5856148 0.623655736
vt 0.531570554 0.647159278
vt 0.55387187 0.756558955
vt 0.647901595 0.716359198
vt 0.6154719 0.66789943
vt 0.542498112 0.699227393
vt 0.5856148 0.623655736
vt 0.626532018 0.581470549
vt 0.584039509 0.553557158
vt 0.556990027 0.581561565
vt 0.6154719 0.66789943
vt 0.670995533 0.611008704
vt 0.626532018 0.581470549
vt 0.5856148 0.623655736
vt 0.647901595 0.716359198
vt 0.719421744 0.643405378
vt 0.670995533 0.611008704
vt 0.6154719 0.66789943
vt 0.684681833 0.771624386
vt 0.774445415 0.680454075
vt 0.719421744 0.643405378
vt 0.647901595 0.716359198
vt 0.7294994 0.838998616
vt 0.774445415 0.680454075
vt 0.684681833 0.771624386
vt 0.841600299 0.72583425
vt 0.783633888 0.920614362
vt 0.922743559 0.780808628
vt 0.556990027 0.581561565
vt 0.584039509 0.553557158
vt 0.542209268 0.526446462
vt 0.528707743 0.540471852
vt 0.841600299 0.72583425
vt 0.822738945 0.561980307
vt 0.774445415 0.680454075
vt 0.902196884 0.578360558
vt 0.922743559 0.780808628
vt 0.998286009 0.598291278
vt 0.584039509 0.553557158
vt 0.598317444 0.517362654
vt 0.549315035 0.508325219
vt 0.542209268 0.526446462
vt 0.626532018 0.581470549
vt 0.648230553 0.526911438
vt 0.598317444 0.517362654
vt 0.584039509 0.553557158
vt 0.670995533 0.611008704
vt 0.700599372 0.537242055
vt 0.648230553 0.526911438
vt 0.626532018 0.581470549
vt 0.719421744 0.643405378
vt 0.757723391 0.548709095
vt 0.700599372 0.537242055
vt 0.670995533 0.611008704
vt 0.774445415 0.680454075
vt 0.822738945 0.561980307
vt 0.757723391 0.548709095
vt 0.719421744 0.643405378
vt 0.648230553 0.526911438
vt 0.647441447 0.468216121
vt 0.597672582 0.478471547
vt 0.598317444 0.517362654
vt 0.700599372 0.537242055
vt 0.699792385 0.4577564
vt 0.647441447 0.468216121
vt 0.648230553 0.526911438
vt 0.757723391 0.548709095
vt 0.75698477 0.446536124
vt 0.699792385 0.4577564
vt 0.700599372 0.537242055
vt 0.822738945 0.561980307
vt 0.822180212 0.433973998
vt 0.75698477 0.446536124
vt 0.757723391 0.548709095
vt 0.902196884 0.578360558
vt 0.822180212 0.433973998
vt 0.822738945 0.561980307
vt 0.901944995 0.418771297
vt 0.998286009 0.598291278
vt 0.998476624 0.400493383
vt 0.598317444 0.517362654
vt 0.597672582 0.478471547
vt 0.548947513 0.488866329
vt 0.549315035 0.508325219
vt 0.901944995 0.418771297
vt 0.772738338 0.315807581
vt 0.822180212 0.433973998
vt 0.840700209 0.271243721
vt 0.998476624 0.400493383
vt 0.923008442 0.217412412
vt 0.597672582 0.478471547
vt 0.58220613 0.442785591
vt 0.541163921 0.471029252
vt 0.548947513 0.488866329
vt 0.647441447 0.468216121
vt 0.624276817 0.414276093
vt 0.58220613 0.442785591
vt 0.597672582 0.478471547
vt 0.699792385 0.4577564
vt 0.668667555 0.384591699
vt 0.624276817 0.414276093
vt 0.647441447 0.468216121
vt 0.75698477 0.446536124
vt 0.717253804 0.352351725
vt 0.668667555 0.384591699
vt 0.699792385 0.4577564
vt 0.822180212 0.433973998
vt 0.772738338 0.315807581
vt 0.717253804 0.352351725
vt 0.75698477 0.446536124
vt 0.668667555 0.384591699
vt 0.611914098 0.328863621
vt 0.582238078 0.373284459
vt 0.624276817 0.414276093
vt 0.717253804 0.352351725
vt 0.644497454 0.280469805
vt 0.611914098 0.328863621
vt 0.668667555 0.384591699
vt 0.772738338 0.315807581
vt 0.681818545 0.225450441
vt 0.644497454 0.280469805
vt 0.717253804 0.352351725
vt 0.840700209 0.271243721
vt 0.681818545 0.225450441
vt 0.772738338 0.315807581
vt 0.727615416 0.158232272
vt 0.923008442 0.217412412
vt 0.783140004 0.0769422948
vt 0.58220613 0.442785591
vt 0.554264545 0.415727079
vt 0.527148247 0.457527369
vt 0.541163921 0.471029252
vt 0.624276817 0.414276093
vt 0.582238078 0.373284459
vt 0.554264545 0.415727079
vt 0.58220613 0.442785591
vt 0.783140004 0.0769422948
vt 0.600002348 0.000576493796
vt 0.579780579 0.0970134437
vt 0.727615416 0.158232272
vt 0.563168585 0.176702842
vt 0.681818545 0.225450441
vt 0.554264545 0.415727079
vt 0.5180915 0.401415139
vt 0.509032309 0.450415879
vt 0.527148247 0.457527369
vt 0.582238078 0.373284459
vt 0.527700365 0.35148555
vt 0.5180915 0.401415139
vt 0.554264545 0.415727079
vt 0.611914098 0.328863621
vt 0.538128316 0.299068689
vt 0.527700365 0.35148555
vt 0.582238078 0.373284459
vt 0.644497454 0.280469805
vt 0.549725473 0.241859168
vt 0.538128316 0.299068689
vt 0.611914098 0.328863621
vt 0.681818545 0.225450441
vt 0.563168585 0.176702842
vt 0.549725473 0.241859168
vt 0.644497454 0.280469805
vt 0.549725473 0.241859168
vt 0.447331667 0.242453724
vt 0.458520979 0.299777836
vt 0.538128316 0.299068689
vt 0.563168585 0.176702842
vt 0.434803635 0.177068472
vt 0.447331667 0.242453724
vt 0.549725473 0.241859168
vt 0.579780579 0.0970134437
vt 0.434803635 0.177068472
vt 0.563168585 0.176702842
vt 0.419637471 0.0970237032
vt 0.600002348 0.000576493796
vt 0.401392609 9.99088152E-05
vt 0.5180915 0.401415139
vt 0.47918877 0.402035683
vt 0.489573359 0.450778723
vt 0.509032309 0.450415879
vt 0.527700365 0.35148555
vt 0.468953788 0.352216661
vt 0.47918877 0.402035683
vt 0.5180915 0.401415139
vt 0.538128316 0.299068689
vt 0.458520979 0.299777836
vt 0.468953788 0.352216661
vt 0.527700365 0.35148555
vt 0.47918877 0.402035683
vt 0.443482012 0.417502493
vt 0.471734911 0.458561897
vt 0.489573359 0.450778723
vt 0.468953788 0.352216661
vt 0.414947271 0.375388414
vt 0.443482012 0.417502493
vt 0.47918877 0.402035683
vt 0.458520979 0.299777836
vt 0.385218471 0.330924243
vt 0.414947271 0.375388414
vt 0.468953788 0.352216661
vt 0.447331667 0.242453724
vt 0.352912128 0.28222841
vt 0.385218471 0.330924243
vt 0.458520979 0.299777836
vt 0.434803635 0.177068472
vt 0.3162736 0.226586848
vt 0.352912128 0.28222841
vt 0.447331667 0.242453724
vt 0.419637471 0.0970237032
vt 0.3162736 0.226586848
vt 0.434803635 0.177068472
vt 0.2715725 0.158395126
vt 0.401392609 9.99088152E-05
vt 0.217550442 0.0757657215
vt 0.352912128 0.28222841
vt 0.280891746 0.355179131
vt 0.329417169 0.387794882
vt 0.385218471 0.330924243
vt 0.3162736 0.226586848
vt 0.22568889 0.317799985
vt 0.280891746 0.355179131
vt 0.352912128 0.28222841
vt 0.2715725 0.158395126
vt 0.22568889 0.317799985
vt 0.3162736 0.226586848
vt 0.158209488 0.271904528
vt 0.217550442 0.0757657215
vt 0.0765634626 0.216225311
vt 0.443482012 0.417502493
vt 0.416417241 0.445463449
vt 0.458234966 0.472579986
vt 0.471734911 0.458561897
vt 0.414947271 0.375388414
vt 0.373925596 0.417485446
vt 0.416417241 0.445463449
vt 0.443482012 0.417502493
vt 0.385218471 0.330924243
vt 0.329417169 0.387794882
vt 0.373925596 0.417485446
vt 0.414947271 0.375388414
vt 0.416417241 0.445463449
vt 0.402125776 0.481652886
vt 0.451130062 0.490695983
vt 0.458234966 0.472579986
vt 0.373925596 0.417485446
vt 0.3521671 0.472087264
vt 0.402125776 0.481652886
vt 0.416417241 0.445463449
vt 0.329417169 0.387794882
vt 0.299672544 0.46172753
vt 0.3521671 0.472087264
vt 0.373925596 0.417485446
vt 0.280891746 0.355179131
vt 0.24231866 0.450213045
vt 0.299672544 0.46172753
vt 0.329417169 0.387794882
vt 0.22568889 0.317799985
vt 0.176955193 0.436857134
vt 0.24231866 0.450213045
vt 0.280891746 0.355179131
vt 0.158209488 0.271904528
vt 0.176955193 0.436857134
vt 0.22568889 0.317799985
vt 0.0969629437 0.420339406
vt 0.0765634626 0.216225311
vt 9.99088152E-05 0.400211424
vt 0.176955193 0.436857134
vt 0.177628994 0.565599978
vt 0.243154138 0.552827299
vt 0.24231866 0.450213045
vt 0.0969629437 0.420339406
vt 0.177628994 0.565599978
vt 0.176955193 0.436857134
vt 0.0973629355 0.581070065
vt 9.99088152E-05 0.400211424
vt 9.99088152E-05 0.5996961
vt 0.402125776 0.481652886
vt 0.402782738 0.520540833
vt 0.451499492 0.510148466
vt 0.451130062 0.490695983
vt 0.3521671 0.472087264
vt 0.353007883 0.530833483
vt 0.402782738 0.520540833
vt 0.402125776 0.481652886
vt 0.299672544 0.46172753
vt 0.300585419 0.541395128
vt 0.353007883 0.530833483
vt 0.3521671 0.472087264
vt 0.24231866 0.450213045
vt 0.243154138 0.552827299
vt 0.300585419 0.541395128
vt 0.299672544 0.46172753
vt 0.402782738 0.520540833
vt 0.418267608 0.556184471
vt 0.459280431 0.527976215
vt 0.451499492 0.510148466
vt 0.353007883 0.530833483
vt 0.376280606 0.58474052
vt 0.418267608 0.556184471
vt 0.402782738 0.520540833
vt 0.300585419 0.541395128
vt 0.332070708 0.614329815
vt 0.376280606 0.58474052
vt 0.353007883 0.530833483
vt 0.243154138 0.552827299
vt 0.283339798 0.647467375
vt 0.332070708 0.614329815
vt 0.300585419 0.541395128
vt 0.177628994 0.565599978
vt 0.227731004 0.684342861
vt 0.283339798 0.647467375
vt 0.243154138 0.552827299
vt 0.0973629355 0.581070065
vt 0.227731004 0.684342861
vt 0.177628994 0.565599978
vt 0.159528047 0.72945112
vt 9.99088152E-05 0.5996961
vt 0.0768458322 0.784050524
vt 0.227731004 0.684342861
vt 0.31955266 0.774552584
vt 0.356684715 0.719204485
vt 0.283339798 0.647467375
vt 0.159528047 0.72945112
vt 0.31955266 0.774552584
vt 0.227731004 0.684342861
vt 0.273925513 0.842516303
vt 0.0768458322 0.784050524
vt 0.21862933 0.924730361
vt 0.418267608 0.556184471
vt 0.446184635 0.583101213
vt 0.473275274 0.541477501
vt 0.459280431 0.527976215
vt 0.376280606 0.58474052
vt 0.41836822 0.625809073
vt 0.446184635 0.583101213
vt 0.418267608 0.556184471
vt 0.332070708 0.614329815
vt 0.388520122 0.670615017
vt 0.41836822 0.625809073
vt 0.376280606 0.58474052
vt 0.283339798 0.647467375
vt 0.356684715 0.719204485
vt 0.388520122 0.670615017
vt 0.332070708 0.614329815
vt 0.41836822 0.625809073
vt 0.472893178 0.647346616
vt 0.482234597 0.597717345
vt 0.446184635 0.583101213
vt 0.388520122 0.670615017
vt 0.462919503 0.700151801
vt 0.472893178 0.647346616
vt 0.41836822 0.625809073
vt 0.356684715 0.719204485
vt 0.451613277 0.757219434
vt 0.462919503 0.700151801
vt 0.388520122 0.670615017
vt 0.31955266 0.774552584
vt 0.438512176 0.821993351
vt 0.451613277 0.757219434
vt 0.356684715 0.719204485
vt 0.273925513 0.842516303
vt 0.438512176 0.821993351
vt 0.31955266 0.774552584
vt 0.422959059 0.903122544
vt 0.21862933 0.924730361
vt 0.403677553 0.999900103
vt 0.446184635 0.583101213
vt 0.482234597 0.597717345
vt 0.491390258 0.548615992
vt 0.473275274 0.541477501
vt 0.459280431 0.527976215
vt 0.473275274 0.541477501
vt 0.500218749 0.499510974
vt 0.491390258 0.548615992
vt 0.451499492 0.510148466
vt 0.500218749 0.499510974
vt 0.451130062 0.490695983
vt 0.510861695 0.548260748
vt 0.500218749 0.499510974
vt 0.528707743 0.540471852
vt 0.458234966 0.472579986
vt 0.500218749 0.499510974
vt 0.471734911 0.458561897
vt 0.542209268 0.526446462
vt 0.500218749 0.499510974
vt 0.549315035 0.508325219
vt 0.489573359 0.450778723
vt 0.500218749 0.499510974
vt 0.509032309 0.450415879
vt 0.548947513 0.488866329
vt 0.500218749 0.499510974
vt 0.541163921 0.471029252
vt 0.527148247 0.457527369
vt 0.500218749 0.499510974
g Ring02_0
f 3/3/3 2/2/2 1/1/1
f 2/2/2 4/4/4 1/1/1
f 1/1/1 4/4/4 5/5/5
f 4/4/4 6/6/6 5/5/5
f 9/9/9 8/8/8 7/7/7
f 10/10/10 9/9/9 7/7/7
f 13/13/13 12/12/12 11/11/11
f 14/14/14 13/13/13 11/11/11
f 17/17/17 16/16/16 15/15/15
f 18/18/18 17/17/17 15/15/15
f 21/21/21 20/20/20 19/19/19
f 22/22/22 21/21/21 19/19/19
f 25/25/25 24/24/24 23/23/23
f 26/26/26 25/25/25 23/23/23
f 29/29/29 28/28/28 27/27/27
f 30/30/30 29/29/29 27/27/27
f 33/33/33 32/32/32 31/31/31
f 32/32/32 34/34/34 31/31/31
f 31/31/31 34/34/34 35/35/35
f 34/34/34 36/36/36 35/35/35
f 39/39/39 38/38/38 37/37/37
f 40/40/40 39/39/39 37/37/37
f 43/43/43 42/42/42 41/41/41
f 44/44/44 43/43/43 41/41/41
f 47/47/47 46/46/46 45/45/45
f 48/48/48 47/47/47 45/45/45
f 51/51/51 50/50/50 49/49/49
f 52/52/52 51/51/51 49/49/49
f 55/55/55 54/54/54 53/53/53
f 56/56/56 55/55/55 53/53/53
f 59/59/59 58/58/58 57/57/57
f 60/60/60 59/59/59 57/57/57
f 63/63/63 62/62/62 61/61/61
f 64/64/64 63/63/63 61/61/61
f 67/67/67 66/66/66 65/65/65
f 68/68/68 67/67/67 65/65/65
f 71/71/71 70/70/70 69/69/69
f 70/70/70 72/72/72 69/69/69
f 69/69/69 72/72/72 73/73/73
f 72/72/72 74/74/74 73/73/73
f 77/77/77 76/76/76 75/75/75
f 78/78/78 77/77/77 75/75/75
f 81/81/81 80/80/80 79/79/79
f 80/80/80 82/82/82 79/79/79
f 79/79/79 82/82/82 83/83/83
f 82/82/82 84/84/84 83/83/83
f 87/87/87 86/86/86 85/85/85
f 88/88/88 87/87/87 85/85/85
f 91/91/91 90/90/90 89/89/89
f 92/92/92 91/91/91 89/89/89
f 95/95/95 94/94/94 93/93/93
f 96/96/96 95/95/95 93/93/93
f 99/99/99 98/98/98 97/97/97
f 100/100/100 99/99/99 97/97/97
f 103/103/103 102/102/102 101/101/101
f 104/104/104 103/103/103 101/101/101
f 107/107/107 106/106/106 105/105/105
f 108/108/108 107/107/107 105/105/105
f 111/111/111 110/110/110 109/109/109
f 112/112/112 111/111/111 109/109/109
f 115/115/115 114/114/114 113/113/113
f 116/116/116 115/115/115 113/113/113
f 119/119/119 118/118/118 117/117/117
f 120/120/120 119/119/119 117/117/117
f 123/123/123 122/122/122 121/121/121
f 122/122/122 124/124/124 121/121/121
f 121/121/121 124/124/124 125/125/125
f 124/124/124 126/126/126 125/125/125
f 129/129/129 128/128/128 127/127/127
f 130/130/130 129/129/129 127/127/127
f 133/133/133 132/132/132 131/131/131
f 132/132/132 134/134/134 131/131/131
f 131/131/131 134/134/134 135/135/135
f 134/134/134 136/136/136 135/135/135
f 139/139/139 138/138/138 137/137/137
f 140/140/140 139/139/139 137/137/137
f 143/143/143 142/142/142 141/141/141
f 144/144/144 143/143/143 141/141/141
f 147/147/147 146/146/146 145/145/145
f 148/148/148 147/147/147 145/145/145
f 151/151/151 150/150/150 149/149/149
f 152/152/152 151/151/151 149/149/149
f 155/155/155 154/154/154 153/153/153
f 156/156/156 155/155/155 153/153/153
f 159/159/159 158/158/158 157/157/157
f 160/160/160 159/159/159 157/157/157
f 163/163/163 162/162/162 161/161/161
f 164/164/164 163/163/163 161/161/161
f 167/167/167 166/166/166 165/165/165
f 168/168/168 167/167/167 165/165/165
f 171/171/171 170/170/170 169/169/169
f 170/170/170 172/172/172 169/169/169
f 169/169/169 172/172/172 173/173/173
f 172/172/172 174/174/174 173/173/173
f 177/177/177 176/176/176 175/175/175
f 178/178/178 177/177/177 175/175/175
f 181/181/181 180/180/180 179/179/179
f 182/182/182 181/181/181 179/179/179
f 185/185/185 184/184/184 183/183/183
f 186/186/186 185/185/185 183/183/183
f 187/187/187 185/185/185 186/186/186
f 188/188/188 187/187/187 186/186/186
f 191/191/191 190/190/190 189/189/189
f 192/192/192 191/191/191 189/189/189
f 195/195/195 194/194/194 193/193/193
f 196/196/196 195/195/195 193/193/193
f 199/199/199 198/198/198 197/197/197
f 200/200/200 199/199/199 197/197/197
f 203/203/203 202/202/202 201/201/201
f 204/204/204 203/203/203 201/201/201
f 207/207/207 206/206/206 205/205/205
f 208/208/208 207/207/207 205/205/205
f 211/211/211 210/210/210 209/209/209
f 212/212/212 211/211/211 209/209/209
f 215/215/215 214/214/214 213/213/213
f 216/216/216 215/215/215 213/213/213
f 219/219/219 218/218/218 217/217/217
f 218/218/218 220/220/220 217/217/217
f 217/217/217 220/220/220 221/221/221
f 220/220/220 222/222/222 221/221/221
f 225/225/225 224/224/224 223/223/223
f 226/226/226 225/225/225 223/223/223
f 229/229/229 228/228/228 227/227/227
f 230/230/230 229/229/229 227/227/227
f 233/233/233 232/232/232 231/231/231
f 234/234/234 233/233/233 231/231/231
f 237/237/237 236/236/236 235/235/235
f 238/238/238 237/237/237 235/235/235
f 241/241/241 240/240/240 239/239/239
f 242/242/242 241/241/241 239/239/239
f 245/245/245 244/244/244 243/243/243
f 246/246/246 245/245/245 243/243/243
f 249/249/249 248/248/248 247/247/247
f 250/250/250 249/249/249 247/247/247
f 253/253/253 252/252/252 251/251/251
f 254/254/254 253/253/253 251/251/251
f 257/257/257 256/256/256 255/255/255
f 256/256/256 258/258/258 255/255/255
f 255/255/255 258/258/258 259/259/259
f 258/258/258 260/260/260 259/259/259
f 263/263/263 262/262/262 261/261/261
f 264/264/264 263/263/263 261/261/261
f 267/267/267 266/266/266 265/265/265
f 268/268/268 267/267/267 265/265/265
f 271/271/271 270/270/270 269/269/269
f 270/270/270 272/272/272 269/269/269
f 269/269/269 272/272/272 273/273/273
f 272/272/272 274/274/274 273/273/273
f 277/277/277 276/276/276 275/275/275
f 278/278/278 277/277/277 275/275/275
f 281/281/281 280/280/280 279/279/279
f 282/282/282 281/281/281 279/279/279
f 285/285/285 284/284/284 283/283/283
f 286/286/286 285/285/285 283/283/283
f 289/289/289 288/288/288 287/287/287
f 290/290/290 289/289/289 287/287/287
f 293/293/293 292/292/292 291/291/291
f 294/294/294 293/293/293 291/291/291
f 297/297/297 296/296/296 295/295/295
f 298/298/298 297/297/297 295/295/295
f 301/301/301 300/300/300 299/299/299
f 302/302/302 301/301/301 299/299/299
f 305/305/305 304/304/304 303/303/303
f 306/306/306 305/305/305 303/303/303
f 309/309/309 308/308/308 307/307/307
f 308/308/308 310/310/310 307/307/307
f 307/307/307 310/310/310 311/311/311
f 310/310/310 312/312/312 311/311/311
f 315/315/315 314/314/314 313/313/313
f 316/316/316 315/315/315 313/313/313
f 319/319/319 318/318/318 317/317/317
f 318/318/318 320/320/320 317/317/317
f 317/317/317 320/320/320 321/321/321
f 320/320/320 322/322/322 321/321/321
f 325/325/325 324/324/324 323/323/323
f 326/326/326 325/325/325 323/323/323
f 329/329/329 328/328/328 327/327/327
f 330/330/330 329/329/329 327/327/327
f 333/333/333 332/332/332 331/331/331
f 334/334/334 333/333/333 331/331/331
f 337/337/337 336/336/336 335/335/335
f 338/338/338 337/337/337 335/335/335
f 341/341/341 340/340/340 339/339/339
f 342/342/342 341/341/341 339/339/339
f 345/345/345 344/344/344 343/343/343
f 346/346/346 345/345/345 343/343/343
f 349/349/349 348/348/348 347/347/347
f 350/350/350 349/349/349 347/347/347
f 353/353/353 352/352/352 351/351/351
f 354/354/354 353/353/353 351/351/351
f 357/357/357 356/356/356 355/355/355
f 358/358/358 357/357/357 355/355/355
f 361/361/361 360/360/360 359/359/359
f 360/360/360 362/362/362 359/359/359
f 359/359/359 362/362/362 363/363/363
f 362/362/362 364/364/364 363/363/363
f 367/367/367 366/366/366 365/365/365
f 368/368/368 367/367/367 365/365/365
f 371/371/371 370/370/370 369/369/369
f 370/370/370 372/372/372 369/369/369
f 369/369/369 372/372/372 373/373/373
f 372/372/372 374/374/374 373/373/373
f 377/377/377 376/376/376 375/375/375
f 378/378/378 377/377/377 375/375/375
f 381/381/381 380/380/380 379/379/379
f 382/382/382 381/381/381 379/379/379
f 385/385/385 384/384/384 383/383/383
f 386/386/386 385/385/385 383/383/383
f 389/389/389 388/388/388 387/387/387
f 390/390/390 389/389/389 387/387/387
f 393/393/393 392/392/392 391/391/391
f 394/394/394 393/393/393 391/391/391
f 397/397/397 396/396/396 395/395/395
f 398/398/398 397/397/397 395/395/395
f 401/401/401 400/400/400 399/399/399
f 402/402/402 401/401/401 399/399/399
f 405/405/405 404/404/404 403/403/403
f 406/406/406 405/405/405 403/403/403
f 409/409/409 408/408/408 407/407/407
f 408/408/408 410/410/410 407/407/407
f 407/407/407 410/410/410 411/411/411
f 410/410/410 412/412/412 411/411/411
f 415/415/415 414/414/414 413/413/413
f 416/416/416 415/415/415 413/413/413
f 419/419/419 418/418/418 417/417/417
f 419/419/419 420/420/420 418/418/418
f 422/422/422 417/417/417 421/421/421
f 422/422/422 421/421/421 423/423/423
f 425/425/425 424/424/424 420/420/420
f 425/425/425 426/426/426 424/424/424
f 428/428/428 423/423/423 427/427/427
f 428/428/428 427/427/427 429/429/429
f 431/431/431 430/430/430 426/426/426
f 431/431/431 432/432/432 430/430/430
f 434/434/434 429/429/429 433/433/433
f 434/434/434 433/433/433 435/435/435
f 437/437/437 436/436/436 432/432/432
f 437/437/437 438/438/438 436/436/436
f 440/440/440 435/435/435 439/439/439
f 440/440/440 439/439/439 438/438/438
