g RingMesh02
v -0 0.258819014 0.965925694
v 0.129409313 0.224143893 0.965925694
v -3.3724271E-07 1.94707155E-07 0.999999881
v 0.129409313 0.224143893 0.965925694
v 0.22414349 0.129409716 0.965925694
v -3.3724271E-07 1.94707155E-07 0.999999881
v 0.22414349 0.129409716 0.965925694
v 0.258818626 4.0234886E-07 0.965925694
v -3.3724271E-07 1.94707155E-07 0.999999881
v 0.258818626 4.0234886E-07 0.965925694
v 0.224143505 -0.129408911 0.965925694
v -3.3724271E-07 1.94707155E-07 0.999999881
v 0.224143505 -0.129408911 0.965925694
v 0.129409313 -0.224143088 0.965925694
v -3.3724271E-07 1.94707155E-07 0.999999881
v 0.129409313 -0.224143088 0.965925694
v 6.45849152E-09 -0.258818209 0.965925694
v -3.3724271E-07 1.94707155E-07 0.999999881
v 6.45849152E-09 -0.258818209 0.965925694
v -0.129409298 -0.224143073 0.965925694
v -3.3724271E-07 1.94707155E-07 0.999999881
v -0.129409298 -0.224143073 0.965925694
v -0.22414346 -0.129408881 0.965925694
v -3.3724271E-07 1.94707155E-07 0.999999881
v -0.22414346 -0.129408881 0.965925694
v -0.258818567 4.09799441E-07 0.965925694
v -3.3724271E-07 1.94707155E-07 0.999999881
v -0.258818567 4.09799441E-07 0.965925694
v -0.224143431 0.129409701 0.965925694
v -3.3724271E-07 1.94707155E-07 0.999999881
v -0.224143431 0.129409701 0.965925694
v -0.129409254 0.224143863 0.965925694
v -3.3724271E-07 1.94707155E-07 0.999999881
v -0.129409254 0.224143863 0.965925694
v -0 0.258819014 0.965925694
v -3.3724271E-07 1.94707155E-07 0.999999881
v -0 0.965925694 0.258819044
v 0.482962638 0.836516201 0.258819044
v 0.433012456 0.74999994 0.499999911
v 1.03316026E-07 0.86602509 0.499999911
v 8.84148719E-08 0.499999791 0.866025269
v 0.249999776 0.433012694 0.866025269
v 0.129409313 0.224143893 0.965925694
v -0 0.258819014 0.965925694
v 2.22525301E-07 0.999999702 7.54978942E-08
v 0.499999732 0.866025329 7.54978942E-08
v 0.482962638 0.836516201 0.258819044
v -0 0.965925694 0.258819044
v -0 0.707106709 0.707106709
v 0.353553146 0.612372398 0.707106709
v 0.249999776 0.433012694 0.866025269
v 8.84148719E-08 0.499999791 0.866025269
v 1.03316026E-07 0.86602509 0.499999911
v 0.433012456 0.74999994 0.499999911
v 0.353553146 0.612372398 0.707106709
v -0 0.707106709 0.707106709
v 0.433012456 0.74999994 0.499999911
v 0.749999642 0.433012843 0.499999911
v 0.612372041 0.353553563 0.707106709
v 0.353553146 0.612372398 0.707106709
v 0.482962638 0.836516201 0.258819044
v 0.836515844 0.482963026 0.258819044
v 0.749999642 0.433012843 0.499999911
v 0.433012456 0.74999994 0.499999911
v 0.249999776 0.433012694 0.866025269
v 0.433012277 0.250000149 0.866025269
v 0.22414349 0.129409716 0.965925694
v 0.129409313 0.224143893 0.965925694
v 0.499999732 0.866025329 7.54978942E-08
v 0.866024911 0.500000119 7.54978942E-08
v 0.836515844 0.482963026 0.258819044
v 0.482962638 0.836516201 0.258819044
v 0.353553146 0.612372398 0.707106709
v 0.612372041 0.353553563 0.707106709
v 0.433012277 0.250000149 0.866025269
v 0.249999776 0.433012694 0.866025269
v 0.433012277 0.250000149 0.866025269
v 0.499999493 3.79997118E-07 0.866025269
v 0.258818626 4.0234886E-07 0.965925694
v 0.22414349 0.129409716 0.965925694
v 0.866024911 0.500000119 7.54978942E-08
v 0.999999464 3.79997118E-07 7.54978942E-08
v 0.965925336 3.50194824E-07 0.258819044
v 0.836515844 0.482963026 0.258819044
v 0.612372041 0.353553563 0.707106709
v 0.707106352 3.79997118E-07 0.707106709
v 0.499999493 3.79997118E-07 0.866025269
v 0.433012277 0.250000149 0.866025269
v 0.749999642 0.433012843 0.499999911
v 0.866024911 3.79997118E-07 0.499999911
v 0.707106352 3.79997118E-07 0.707106709
v 0.612372041 0.353553563 0.707106709
v 0.836515844 0.482963026 0.258819044
v 0.965925336 3.50194824E-07 0.258819044
v 0.866024911 3.79997118E-07 0.499999911
v 0.749999642 0.433012843 0.499999911
v 0.965925336 3.50194824E-07 0.258819044
v 0.836515844 -0.48296231 0.258819044
v 0.749999583 -0.433012068 0.499999911
v 0.866024911 3.79997118E-07 0.499999911
v 0.499999493 3.79997118E-07 0.866025269
v 0.433012217 -0.249999359 0.866025269
v 0.224143505 -0.129408911 0.965925694
v 0.258818626 4.0234886E-07 0.965925694
v 0.999999464 3.79997118E-07 7.54978942E-08
v 0.866024911 -0.499999344 7.54978942E-08
v 0.836515844 -0.48296231 0.258819044
v 0.965925336 3.50194824E-07 0.258819044
v 0.707106352 3.79997118E-07 0.707106709
v 0.612372041 -0.353552788 0.707106709
v 0.433012217 -0.249999359 0.866025269
v 0.499999493 3.79997118E-07 0.866025269
v 0.866024911 3.79997118E-07 0.499999911
v 0.749999583 -0.433012068 0.499999911
v 0.612372041 -0.353552788 0.707106709
v 0.707106352 3.79997118E-07 0.707106709
v 0.612372041 -0.353552788 0.707106709
v 0.353553116 -0.612371683 0.707106709
v 0.249999687 -0.43301183 0.866025269
v 0.433012217 -0.249999359 0.866025269
v 0.749999583 -0.433012068 0.499999911
v 0.433012396 -0.749999166 0.499999911
v 0.353553116 -0.612371683 0.707106709
v 0.612372041 -0.353552788 0.707106709
v 0.836515844 -0.48296231 0.258819044
v 0.482962638 -0.836515486 0.258819044
v 0.433012396 -0.749999166 0.499999911
v 0.749999583 -0.433012068 0.499999911
v 0.433012217 -0.249999359 0.866025269
v 0.249999687 -0.43301183 0.866025269
v 0.129409313 -0.224143088 0.965925694
v 0.224143505 -0.129408911 0.965925694
v 0.866024911 -0.499999344 7.54978942E-08
v 0.499999672 -0.866024554 7.54978942E-08
v 0.482962638 -0.836515486 0.258819044
v 0.836515844 -0.48296231 0.258819044
v 0.249999687 -0.43301183 0.866025269
v -3.0794407E-08 -0.499999017 0.866025269
v 6.45849152E-09 -0.258818209 0.965925694
v 0.129409313 -0.224143088 0.965925694
v 0.499999672 -0.866024554 7.54978942E-08
v -7.54978871E-08 -0.999999046 7.54978942E-08
v -4.56955647E-08 -0.965924919 0.258819044
v 0.482962638 -0.836515486 0.258819044
v 0.353553116 -0.612371683 0.707106709
v -7.54978871E-08 -0.707105935 0.707106709
v -3.0794407E-08 -0.499999017 0.866025269
v 0.249999687 -0.43301183 0.866025269
v 0.433012396 -0.749999166 0.499999911
v -1.58932476E-08 -0.866024435 0.499999911
v -7.54978871E-08 -0.707105935 0.707106709
v 0.353553116 -0.612371683 0.707106709
v 0.482962638 -0.836515486 0.258819044
v -4.56955647E-08 -0.965924919 0.258819044
v -1.58932476E-08 -0.866024435 0.499999911
v 0.433012396 -0.749999166 0.499999911
v -1.58932476E-08 -0.866024435 0.499999911
v -0.433012426 -0.749999106 0.499999911
v -0.353553236 -0.612371564 0.707106709
v -7.54978871E-08 -0.707105935 0.707106709
v -4.56955647E-08 -0.965924919 0.258819044
v -0.482962698 -0.836515427 0.258819044
v -0.433012426 -0.749999106 0.499999911
v -1.58932476E-08 -0.866024435 0.499999911
v -3.0794407E-08 -0.499999017 0.866025269
v -0.249999732 -0.43301174 0.866025269
v -0.129409298 -0.224143073 0.965925694
v 6.45849152E-09 -0.258818209 0.965925694
v -7.54978871E-08 -0.999999046 7.54978942E-08
v -0.499999791 -0.866024435 7.54978942E-08
v -0.482962698 -0.836515427 0.258819044
v -4.56955647E-08 -0.965924919 0.258819044
v -7.54978871E-08 -0.707105935 0.707106709
v -0.353553236 -0.612371564 0.707106709
v -0.249999732 -0.43301174 0.866025269
v -3.0794407E-08 -0.499999017 0.866025269
v -0.353553236 -0.612371564 0.707106709
v -0.612372041 -0.35355261 0.707106709
v -0.433012187 -0.249999255 0.866025269
v -0.249999732 -0.43301174 0.866025269
v -0.433012426 -0.749999106 0.499999911
v -0.749999523 -0.433011949 0.499999911
v -0.612372041 -0.35355261 0.707106709
v -0.353553236 -0.612371564 0.707106709
v -0.482962698 -0.836515427 0.258819044
v -0.836515844 -0.482962191 0.258819044
v -0.749999523 -0.433011949 0.499999911
v -0.433012426 -0.749999106 0.499999911
v -0.249999732 -0.43301174 0.866025269
v -0.433012187 -0.249999255 0.866025269
v -0.22414346 -0.129408881 0.965925694
v -0.129409298 -0.224143073 0.965925694
v -0.499999791 -0.866024435 7.54978942E-08
v -0.866024911 -0.499999166 7.54978942E-08
v -0.836515844 -0.482962191 0.258819044
v -0.482962698 -0.836515427 0.258819044
v -0.836515844 -0.482962191 0.258819044
v -0.965925276 4.69404085E-07 0.258819044
v -0.866024733 4.39601763E-07 0.499999911
v -0.749999523 -0.433011949 0.499999911
v -0.433012187 -0.249999255 0.866025269
v -0.499999404 4.54502924E-07 0.866025269
v -0.258818567 4.09799441E-07 0.965925694
v -0.22414346 -0.129408881 0.965925694
v -0.866024911 -0.499999166 7.54978942E-08
v -0.999999344 5.58811053E-07 7.54978942E-08
v -0.965925276 4.69404085E-07 0.258819044
v -0.836515844 -0.482962191 0.258819044
v -0.612372041 -0.35355261 0.707106709
v -0.707106233 5.2900873E-07 0.707106709
v -0.499999404 4.54502924E-07 0.866025269
v -0.433012187 -0.249999255 0.866025269
v -0.749999523 -0.433011949 0.499999911
v -0.866024733 4.39601763E-07 0.499999911
v -0.707106233 5.2900873E-07 0.707106709
v -0.612372041 -0.35355261 0.707106709
v -0.866024733 4.39601763E-07 0.499999911
v -0.749999404 0.433012813 0.499999911
v -0.612371862 0.353553623 0.707106709
v -0.707106233 5.2900873E-07 0.707106709
v -0.965925276 4.69404085E-07 0.258819044
v -0.836515725 0.482963115 0.258819044
v -0.749999404 0.433012813 0.499999911
v -0.866024733 4.39601763E-07 0.499999911
v -0.499999404 4.54502924E-07 0.866025269
v -0.433012128 0.250000149 0.866025269
v -0.224143431 0.129409701 0.965925694
v -0.258818567 4.09799441E-07 0.965925694
v -0.999999344 5.58811053E-07 7.54978942E-08
v -0.866024673 0.500000238 7.54978942E-08
v -0.836515725 0.482963115 0.258819044
v -0.965925276 4.69404085E-07 0.258819044
v -0.707106233 5.2900873E-07 0.707106709
v -0.612371862 0.353553623 0.707106709
v -0.433012128 0.250000149 0.866025269
v -0.499999404 4.54502924E-07 0.866025269
v -0.866024673 0.500000238 7.54978942E-08
v -0.499999464 0.866025269 7.54978942E-08
v -0.482962519 0.836516201 0.258819044
v -0.836515725 0.482963115 0.258819044
v -0.612371862 0.353553623 0.707106709
v -0.353552997 0.612372398 0.707106709
v -0.249999627 0.433012605 0.866025269
v -0.433012128 0.250000149 0.866025269
v -0.749999404 0.433012813 0.499999911
v -0.433012277 0.749999881 0.499999911
v -0.353552997 0.612372398 0.707106709
v -0.612371862 0.353553623 0.707106709
v -0.836515725 0.482963115 0.258819044
v -0.482962519 0.836516201 0.258819044
v -0.433012277 0.749999881 0.499999911
v -0.749999404 0.433012813 0.499999911
v -0.433012128 0.250000149 0.866025269
v -0.249999627 0.433012605 0.866025269
v -0.129409254 0.224143863 0.965925694
v -0.224143431 0.129409701 0.965925694
v -0.482962519 0.836516201 0.258819044
v -0 0.965925694 0.258819044
v 1.03316026E-07 0.86602509 0.499999911
v -0.433012277 0.749999881 0.499999911
v -0.249999627 0.433012605 0.866025269
v 8.84148719E-08 0.499999791 0.866025269
v -0 0.258819014 0.965925694
v -0.129409254 0.224143863 0.965925694
v -0.499999464 0.866025269 7.54978942E-08
v 2.22525301E-07 0.999999702 7.54978942E-08
v -0 0.965925694 0.258819044
v -0.482962519 0.836516201 0.258819044
v -0.353552997 0.612372398 0.707106709
v -0 0.707106709 0.707106709
v 8.84148719E-08 0.499999791 0.866025269
v -0.249999627 0.433012605 0.866025269
v -0.433012277 0.749999881 0.499999911
v 1.03316026E-07 0.86602509 0.499999911
v -0 0.707106709 0.707106709
v -0.353552997 0.612372398 0.707106709
v 0.866024911 -0.499999344 7.54978942E-08
v 0.823632598 -0.475524127 -0.297136575
v 0.475524485 -0.82363224 -0.297136575
v 0.499999672 -0.866024554 7.54978942E-08
v -0.999999344 5.58811053E-07 7.54978942E-08
v -0.951048911 5.51880703E-07 -0.297136575
v -0.82363236 0.475525022 -0.297136575
v -0.866024673 0.500000238 7.54978942E-08
v 2.22525301E-07 0.999999702 7.54978942E-08
v 2.15214854E-07 0.951049268 -0.297136575
v 0.475524515 0.823633015 -0.297136575
v 0.499999732 0.866025329 7.54978942E-08
v -0.499999464 0.866025269 7.54978942E-08
v -0.475524276 0.823632956 -0.297136575
v 2.15214854E-07 0.951049268 -0.297136575
v 2.22525301E-07 0.999999702 7.54978942E-08
v 0.499999672 -0.866024554 7.54978942E-08
v 0.475524485 -0.82363224 -0.297136575
v -6.82199683E-08 -0.951048613 -0.297136575
v -7.54978871E-08 -0.999999046 7.54978942E-08
v -7.54978871E-08 -0.999999046 7.54978942E-08
v -6.82199683E-08 -0.951048613 -0.297136575
v -0.475524575 -0.823632121 -0.297136575
v -0.499999791 -0.866024435 7.54978942E-08
v 0.999999464 3.79997118E-07 7.54978942E-08
v 0.95104903 3.81819802E-07 -0.297136575
v 0.823632598 -0.475524127 -0.297136575
v 0.866024911 -0.499999344 7.54978942E-08
v 0.866024911 0.500000119 7.54978942E-08
v 0.823632598 0.475524902 -0.297136575
v 0.95104903 3.81819802E-07 -0.297136575
v 0.999999464 3.79997118E-07 7.54978942E-08
v -0.866024911 -0.499999166 7.54978942E-08
v -0.823632598 -0.475523978 -0.297136575
v -0.951048911 5.51880703E-07 -0.297136575
v -0.999999344 5.58811053E-07 7.54978942E-08
v 0.499999732 0.866025329 7.54978942E-08
v 0.475524515 0.823633015 -0.297136575
v 0.823632598 0.475524902 -0.297136575
v 0.866024911 0.500000119 7.54978942E-08
v -0.499999791 -0.866024435 7.54978942E-08
v -0.475524575 -0.823632121 -0.297136575
v -0.823632598 -0.475523978 -0.297136575
v -0.866024911 -0.499999166 7.54978942E-08
v -0.866024673 0.500000238 7.54978942E-08
v -0.82363236 0.475525022 -0.297136575
v -0.475524276 0.823632956 -0.297136575
v -0.499999464 0.866025269 7.54978942E-08
v 0.475524515 0.823633015 -0.297136575
v 0.40039289 0.693501234 -0.660676777
v 0.693500876 0.400393277 -0.660676777
v 0.823632598 0.475524902 -0.297136575
v -0.823632598 -0.475523978 -0.297136575
v -0.693500817 -0.400392354 -0.660676777
v -0.800785661 5.29821875E-07 -0.660676777
v -0.951048911 5.51880703E-07 -0.297136575
v 0.475524485 -0.82363224 -0.297136575
v 0.40039286 -0.693500459 -0.660676777
v -5.02914688E-08 -0.800785363 -0.660676777
v -6.82199683E-08 -0.951048613 -0.297136575
v 2.15214854E-07 0.951049268 -0.297136575
v 1.88361383E-07 0.800786018 -0.660676777
v 0.40039289 0.693501234 -0.660676777
v 0.475524515 0.823633015 -0.297136575
v 0.823632598 0.475524902 -0.297136575
v 0.693500876 0.400393277 -0.660676777
v 0.80078578 3.8663012E-07 -0.660676777
v 0.95104903 3.81819802E-07 -0.297136575
v -0.951048911 5.51880703E-07 -0.297136575
v -0.800785661 5.29821875E-07 -0.660676777
v -0.693500638 0.400393367 -0.660676777
v -0.82363236 0.475525022 -0.297136575
v -6.82199683E-08 -0.951048613 -0.297136575
v -5.02914688E-08 -0.800785363 -0.660676777
v -0.40039292 -0.6935004 -0.660676777
v -0.475524575 -0.823632121 -0.297136575
v 0.95104903 3.81819802E-07 -0.297136575
v 0.80078578 3.8663012E-07 -0.660676777
v 0.693500876 -0.400392503 -0.660676777
v 0.823632598 -0.475524127 -0.297136575
v -0.82363236 0.475525022 -0.297136575
v -0.693500638 0.400393367 -0.660676777
v -0.400392681 0.693501234 -0.660676777
v -0.475524276 0.823632956 -0.297136575
v -0.475524575 -0.823632121 -0.297136575
v -0.40039292 -0.6935004 -0.660676777
v -0.693500817 -0.400392354 -0.660676777
v -0.823632598 -0.475523978 -0.297136575
v 0.823632598 -0.475524127 -0.297136575
v 0.693500876 -0.400392503 -0.660676777
v 0.40039286 -0.693500459 -0.660676777
v 0.475524485 -0.82363224 -0.297136575
v -0.475524276 0.823632956 -0.297136575
v -0.400392681 0.693501234 -0.660676777
v 1.88361383E-07 0.800786018 -0.660676777
v 2.15214854E-07 0.951049268 -0.297136575
v -0.400392681 0.693501234 -0.660676777
v -0.296090901 0.512845218 -1.08991218
v 1.59620839E-07 0.592182457 -1.08991218
v 1.88361383E-07 0.800786018 -0.660676777
v 0.40039289 0.693501234 -0.660676777
v 0.296091139 0.512845218 -1.08991218
v 0.512844861 0.296091497 -1.08991218
v 0.693500876 0.400393277 -0.660676777
v -0.693500817 -0.400392354 -0.660676777
v -0.512844741 -0.296090573 -1.08991218
v -0.5921821 4.99198563E-07 -1.08991218
v -0.800785661 5.29821875E-07 -0.660676777
v 0.40039286 -0.693500459 -0.660676777
v 0.29609108 -0.512844384 -1.08991218
v -1.68632805E-08 -0.592181742 -1.08991218
v -5.02914688E-08 -0.800785363 -0.660676777
v 1.88361383E-07 0.800786018 -0.660676777
v 1.59620839E-07 0.592182457 -1.08991218
v 0.296091139 0.512845218 -1.08991218
v 0.40039289 0.693501234 -0.660676777
v 0.693500876 0.400393277 -0.660676777
v 0.512844861 0.296091497 -1.08991218
v 0.592182219 3.93308085E-07 -1.08991218
v 0.80078578 3.8663012E-07 -0.660676777
v -0.800785661 5.29821875E-07 -0.660676777
v -0.5921821 4.99198563E-07 -1.08991218
v -0.512844622 0.296091557 -1.08991218
v -0.693500638 0.400393367 -0.660676777
v -5.02914688E-08 -0.800785363 -0.660676777
v -1.68632805E-08 -0.592181742 -1.08991218
v -0.29609108 -0.512844384 -1.08991218
v -0.40039292 -0.6935004 -0.660676777
v 0.80078578 3.8663012E-07 -0.660676777
v 0.592182219 3.93308085E-07 -1.08991218
v 0.512844861 -0.296090692 -1.08991218
v 0.693500876 -0.400392503 -0.660676777
v -0.693500638 0.400393367 -0.660676777
v -0.512844622 0.296091557 -1.08991218
v -0.296090901 0.512845218 -1.08991218
v -0.400392681 0.693501234 -0.660676777
v -0.40039292 -0.6935004 -0.660676777
v -0.29609108 -0.512844384 -1.08991218
v -0.512844741 -0.296090573 -1.08991218
v -0.693500817 -0.400392354 -0.660676777
v 0.693500876 -0.400392503 -0.660676777
v 0.512844861 -0.296090692 -1.08991218
v 0.29609108 -0.512844384 -1.08991218
v 0.40039286 -0.693500459 -0.660676777
vt 0.485644341 0.50838393
vt 0.492394865 0.514394879
vt 0.49999994 0.5
vt 0.492394865 0.514394879
vt 0.49999994 0.516546726
vt 0.49999994 0.5
vt 0.49999994 0.516546726
vt 0.509528697 0.514288187
vt 0.49999994 0.5
vt 0.509528697 0.514288187
vt 0.51540637 0.508224487
vt 0.49999994 0.5
vt 0.51540637 0.508224487
vt 0.517206848 0.5
vt 0.49999994 0.5
vt 0.517206848 0.5
vt 0.514423788 0.491677821
vt 0.49999994 0.5
vt 0.514423788 0.491677821
vt 0.507753611 0.485606611
vt 0.49999994 0.5
vt 0.507753611 0.485606611
vt 0.498954833 0.48339197
vt 0.49999994 0.5
vt 0.498954833 0.48339197
vt 0.490403473 0.485650152
vt 0.49999994 0.5
vt 0.490403473 0.485650152
vt 0.48444432 0.491774827
vt 0.49999994 0.5
vt 0.48444432 0.491774827
vt 0.482710779 0.5
vt 0.49999994 0.5
vt 0.482710779 0.5
vt 0.485644341 0.50838393
vt 0.49999994 0.5
vt 0.343286097 0.588276386
vt 0.415097326 0.651771247
vt 0.440821856 0.606610239
vt 0.390868753 0.562107623
vt 0.472938746 0.515894413
vt 0.485521317 0.527044415
vt 0.492394865 0.514394879
vt 0.485644341 0.50838393
vt 0.291562617 0.61934936
vt 0.389106333 0.70295459
vt 0.415097326 0.651771247
vt 0.343286097 0.588276386
vt 0.445630878 0.531560898
vt 0.470699072 0.553804398
vt 0.485521317 0.527044415
vt 0.472938746 0.515894413
vt 0.390868753 0.562107623
vt 0.440821856 0.606610239
vt 0.470699072 0.553804398
vt 0.445630878 0.531560898
vt 0.440821856 0.606610239
vt 0.49999994 0.623106182
vt 0.49999994 0.561808228
vt 0.470699072 0.553804398
vt 0.415097326 0.651771247
vt 0.49999994 0.675767064
vt 0.49999994 0.623106182
vt 0.440821856 0.606610239
vt 0.485521317 0.527044415
vt 0.49999994 0.530989885
vt 0.49999994 0.516546726
vt 0.492394865 0.514394879
vt 0.389106333 0.70295459
vt 0.49999994 0.734261334
vt 0.49999994 0.675767064
vt 0.415097326 0.651771247
vt 0.470699072 0.553804398
vt 0.49999994 0.561808228
vt 0.49999994 0.530989885
vt 0.485521317 0.527044415
vt 0.49999994 0.530989885
vt 0.517436087 0.526766658
vt 0.509528697 0.514288187
vt 0.49999994 0.516546726
vt 0.49999994 0.734261334
vt 0.62809509 0.706227779
vt 0.594746351 0.654785216
vt 0.49999994 0.675767064
vt 0.49999994 0.561808228
vt 0.534162343 0.55367893
vt 0.517436087 0.526766658
vt 0.49999994 0.530989885
vt 0.49999994 0.623106182
vt 0.566967666 0.60777247
vt 0.534162343 0.55367893
vt 0.49999994 0.561808228
vt 0.49999994 0.675767064
vt 0.594746351 0.654785216
vt 0.566967666 0.60777247
vt 0.49999994 0.623106182
vt 0.594746351 0.654785216
vt 0.66001606 0.593561947
vt 0.612269759 0.564267576
vt 0.566967666 0.60777247
vt 0.517436087 0.526766658
vt 0.528553724 0.515469193
vt 0.51540637 0.508224487
vt 0.509528697 0.514288187
vt 0.62809509 0.706227779
vt 0.715214252 0.624749362
vt 0.66001606 0.593561947
vt 0.594746351 0.654785216
vt 0.534162343 0.55367893
vt 0.55659467 0.531445622
vt 0.528553724 0.515469193
vt 0.517436087 0.526766658
vt 0.566967666 0.60777247
vt 0.612269759 0.564267576
vt 0.55659467 0.531445622
vt 0.534162343 0.55367893
vt 0.55659467 0.531445622
vt 0.564375401 0.5
vt 0.53219384 0.5
vt 0.528553724 0.515469193
vt 0.612269759 0.564267576
vt 0.628909767 0.5
vt 0.564375401 0.5
vt 0.55659467 0.531445622
vt 0.66001606 0.593561947
vt 0.685021639 0.5
vt 0.628909767 0.5
vt 0.612269759 0.564267576
vt 0.528553724 0.515469193
vt 0.53219384 0.5
vt 0.517206848 0.5
vt 0.51540637 0.508224487
vt 0.715214252 0.624749362
vt 0.749186993 0.5
vt 0.685021639 0.5
vt 0.66001606 0.593561947
vt 0.53219384 0.5
vt 0.527278244 0.484412253
vt 0.514423788 0.491677821
vt 0.517206848 0.5
vt 0.749186993 0.5
vt 0.71837008 0.38672176
vt 0.661550164 0.416030884
vt 0.685021639 0.5
vt 0.564375401 0.5
vt 0.555108607 0.469360411
vt 0.527278244 0.484412253
vt 0.53219384 0.5
vt 0.628909767 0.5
vt 0.611597836 0.440277278
vt 0.555108607 0.469360411
vt 0.564375401 0.5
vt 0.685021639 0.5
vt 0.661550164 0.416030884
vt 0.611597836 0.440277278
vt 0.628909767 0.5
vt 0.611597836 0.440277278
vt 0.563641608 0.392491162
vt 0.530772328 0.445947111
vt 0.555108607 0.469360411
vt 0.661550164 0.416030884
vt 0.593486249 0.346332967
vt 0.563641608 0.392491162
vt 0.611597836 0.440277278
vt 0.527278244 0.484412253
vt 0.514949143 0.47290352
vt 0.507753611 0.485606611
vt 0.514423788 0.491677821
vt 0.71837008 0.38672176
vt 0.627072811 0.292373061
vt 0.593486249 0.346332967
vt 0.661550164 0.416030884
vt 0.555108607 0.469360411
vt 0.530772328 0.445947111
vt 0.514949143 0.47290352
vt 0.527278244 0.484412253
vt 0.530772328 0.445947111
vt 0.497608602 0.43709603
vt 0.498416305 0.468680024
vt 0.514949143 0.47290352
vt 0.563641608 0.392491162
vt 0.497116268 0.373695254
vt 0.497608602 0.43709603
vt 0.530772328 0.445947111
vt 0.593486249 0.346332967
vt 0.497593552 0.318092942
vt 0.497116268 0.373695254
vt 0.563641608 0.392491162
vt 0.514949143 0.47290352
vt 0.498416305 0.468680024
vt 0.498954833 0.48339197
vt 0.507753611 0.485606611
vt 0.627072811 0.292373061
vt 0.497227281 0.253914952
vt 0.497593552 0.318092942
vt 0.593486249 0.346332967
vt 0.497593552 0.318092942
vt 0.400376141 0.340860516
vt 0.430363148 0.389945745
vt 0.497116268 0.373695254
vt 0.498416305 0.468680024
vt 0.482187122 0.472983211
vt 0.490403473 0.485650152
vt 0.498954833 0.48339197
vt 0.497227281 0.253914952
vt 0.364771068 0.285178304
vt 0.400376141 0.340860516
vt 0.497593552 0.318092942
vt 0.497608602 0.43709603
vt 0.464720398 0.445534676
vt 0.482187122 0.472983211
vt 0.498416305 0.468680024
vt 0.497116268 0.373695254
vt 0.430363148 0.389945745
vt 0.464720398 0.445534676
vt 0.497608602 0.43709603
vt 0.430363148 0.389945745
vt 0.382863522 0.436825752
vt 0.441508472 0.468954593
vt 0.464720398 0.445534676
vt 0.400376141 0.340860516
vt 0.330816716 0.408588529
vt 0.382863522 0.436825752
vt 0.430363148 0.389945745
vt 0.482187122 0.472983211
vt 0.470806837 0.484641075
vt 0.48444432 0.491774827
vt 0.490403473 0.485650152
vt 0.364771068 0.285178304
vt 0.270106196 0.378238082
vt 0.330816716 0.408588529
vt 0.400376141 0.340860516
vt 0.464720398 0.445534676
vt 0.441508472 0.468954593
vt 0.470806837 0.484641075
vt 0.482187122 0.472983211
vt 0.270106196 0.378238082
vt 0.243800372 0.5
vt 0.310301781 0.5
vt 0.330816716 0.408588529
vt 0.441508472 0.468954593
vt 0.43462491 0.5
vt 0.467457354 0.5
vt 0.470806837 0.484641075
vt 0.382863522 0.436825752
vt 0.368660241 0.5
vt 0.43462491 0.5
vt 0.441508472 0.468954593
vt 0.330816716 0.408588529
vt 0.310301781 0.5
vt 0.368660241 0.5
vt 0.382863522 0.436825752
vt 0.470806837 0.484641075
vt 0.467457354 0.5
vt 0.482710779 0.5
vt 0.48444432 0.491774827
vt 0.310301781 0.5
vt 0.343286097 0.588276386
vt 0.390868753 0.562107623
vt 0.368660241 0.5
vt 0.467457354 0.5
vt 0.472938746 0.515894413
vt 0.485644341 0.50838393
vt 0.482710779 0.5
vt 0.243800372 0.5
vt 0.291562617 0.61934936
vt 0.343286097 0.588276386
vt 0.310301781 0.5
vt 0.43462491 0.5
vt 0.445630878 0.531560898
vt 0.472938746 0.515894413
vt 0.467457354 0.5
vt 0.368660241 0.5
vt 0.390868753 0.562107623
vt 0.445630878 0.531560898
vt 0.43462491 0.5
vt 0.715214252 0.624749362
vt 0.787231445 0.660986602
vt 0.831756115 0.5
vt 0.749186993 0.5
vt 0.364771068 0.285178304
vt 0.318210602 0.193674833
vt 0.189363599 0.340724707
vt 0.270106196 0.378238082
vt 0.291562617 0.61934936
vt 0.23115319 0.66352284
vt 0.362308562 0.770279586
vt 0.389106333 0.70295459
vt 0.243800372 0.5
vt 0.158017486 0.5
vt 0.23115319 0.66352284
vt 0.291562617 0.61934936
vt 0.749186993 0.5
vt 0.831756115 0.5
vt 0.791038156 0.345193475
vt 0.71837008 0.38672176
vt 0.71837008 0.38672176
vt 0.791038156 0.345193475
vt 0.677340269 0.218210116
vt 0.627072811 0.292373061
vt 0.62809509 0.706227779
vt 0.673726797 0.769165635
vt 0.787231445 0.660986602
vt 0.715214252 0.624749362
vt 0.49999994 0.734261334
vt 0.49999994 0.808040857
vt 0.673726797 0.769165635
vt 0.62809509 0.706227779
vt 0.497227281 0.253914952
vt 0.495278955 0.168179095
vt 0.318210602 0.193674833
vt 0.364771068 0.285178304
vt 0.389106333 0.70295459
vt 0.362308562 0.770279586
vt 0.49999994 0.808040857
vt 0.49999994 0.734261334
vt 0.627072811 0.292373061
vt 0.677340269 0.218210116
vt 0.495278955 0.168179095
vt 0.497227281 0.253914952
vt 0.270106196 0.378238082
vt 0.189363599 0.340724707
vt 0.158017486 0.5
vt 0.243800372 0.5
vt 0.362308562 0.770279586
vt 0.340765357 0.856008053
vt 0.49999994 0.878297091
vt 0.49999994 0.808040857
vt 0.495278955 0.168179095
vt 0.495422602 0.0756920874
vt 0.280914634 0.134751961
vt 0.318210602 0.193674833
vt 0.831756115 0.5
vt 0.91557914 0.5
vt 0.866847277 0.30097127
vt 0.791038156 0.345193475
vt 0.23115319 0.66352284
vt 0.186499566 0.723739624
vt 0.340765357 0.856008053
vt 0.362308562 0.770279586
vt 0.49999994 0.808040857
vt 0.49999994 0.878297091
vt 0.722808838 0.827021837
vt 0.673726797 0.769165635
vt 0.318210602 0.193674833
vt 0.280914634 0.134751961
vt 0.115128905 0.318348527
vt 0.189363599 0.340724707
vt 0.791038156 0.345193475
vt 0.866847277 0.30097127
vt 0.722350001 0.146227866
vt 0.677340269 0.218210116
vt 0.673726797 0.769165635
vt 0.722808838 0.827021837
vt 0.860067844 0.693390012
vt 0.787231445 0.660986602
vt 0.189363599 0.340724707
vt 0.115128905 0.318348527
vt 0.0719471276 0.5
vt 0.158017486 0.5
vt 0.677340269 0.218210116
vt 0.722350001 0.146227866
vt 0.495422602 0.0756920874
vt 0.495278955 0.168179095
vt 0.787231445 0.660986602
vt 0.860067844 0.693390012
vt 0.91557914 0.5
vt 0.831756115 0.5
vt 0.158017486 0.5
vt 0.0719471276 0.5
vt 0.186499566 0.723739624
vt 0.23115319 0.66352284
vt 0.0719471276 0.5
vt -0.0115217566 0.5
vt 0.0962328613 0.774064064
vt 0.186499566 0.723739624
vt 0.340765357 0.856008053
vt 0.302266479 0.929464817
vt 0.49999994 0.980443001
vt 0.49999994 0.878297091
vt 0.495422602 0.0756920874
vt 0.492663682 0.0116582811
vt 0.252717406 0.0698559284
vt 0.280914634 0.134751961
vt 0.91557914 0.5
vt 1.00251615 0.5
vt 0.923858404 0.244544595
vt 0.866847277 0.30097127
vt 0.186499566 0.723739624
vt 0.0962328613 0.774064064
vt 0.302266479 0.929464817
vt 0.340765357 0.856008053
vt 0.49999994 0.878297091
vt 0.49999994 0.980443001
vt 0.779917359 0.894930124
vt 0.722808838 0.827021837
vt 0.280914634 0.134751961
vt 0.252717406 0.0698559284
vt 0.0467954874 0.27518791
vt 0.115128905 0.318348527
vt 0.866847277 0.30097127
vt 0.923858404 0.244544595
vt 0.757089257 0.0831827223
vt 0.722350001 0.146227866
vt 0.722808838 0.827021837
vt 0.779917359 0.894930124
vt 0.952016413 0.723833978
vt 0.860067844 0.693390012
vt 0.115128905 0.318348527
vt 0.0467954874 0.27518791
vt -0.0115217566 0.5
vt 0.0719471276 0.5
vt 0.722350001 0.146227866
vt 0.757089257 0.0831827223
vt 0.492663682 0.0116582811
vt 0.495422602 0.0756920874
vt 0.860067844 0.693390012
vt 0.952016413 0.723833978
vt 1.00251615 0.5
vt 0.91557914 0.5
g RingMesh02_0
f 3/3/3 2/2/2 1/1/1
f 6/6/6 5/5/5 4/4/4
f 9/9/9 8/8/8 7/7/7
f 12/12/12 11/11/11 10/10/10
f 15/15/15 14/14/14 13/13/13
f 18/18/18 17/17/17 16/16/16
f 21/21/21 20/20/20 19/19/19
f 24/24/24 23/23/23 22/22/22
f 27/27/27 26/26/26 25/25/25
f 30/30/30 29/29/29 28/28/28
f 33/33/33 32/32/32 31/31/31
f 36/36/36 35/35/35 34/34/34
f 39/39/39 38/38/38 37/37/37
f 40/40/40 39/39/39 37/37/37
f 43/43/43 42/42/42 41/41/41
f 44/44/44 43/43/43 41/41/41
f 47/47/47 46/46/46 45/45/45
f 48/48/48 47/47/47 45/45/45
f 51/51/51 50/50/50 49/49/49
f 52/52/52 51/51/51 49/49/49
f 55/55/55 54/54/54 53/53/53
f 56/56/56 55/55/55 53/53/53
f 59/59/59 58/58/58 57/57/57
f 60/60/60 59/59/59 57/57/57
f 63/63/63 62/62/62 61/61/61
f 64/64/64 63/63/63 61/61/61
f 67/67/67 66/66/66 65/65/65
f 68/68/68 67/67/67 65/65/65
f 71/71/71 70/70/70 69/69/69
f 72/72/72 71/71/71 69/69/69
f 75/75/75 74/74/74 73/73/73
f 76/76/76 75/75/75 73/73/73
f 79/79/79 78/78/78 77/77/77
f 80/80/80 79/79/79 77/77/77
f 83/83/83 82/82/82 81/81/81
f 84/84/84 83/83/83 81/81/81
f 87/87/87 86/86/86 85/85/85
f 88/88/88 87/87/87 85/85/85
f 91/91/91 90/90/90 89/89/89
f 92/92/92 91/91/91 89/89/89
f 95/95/95 94/94/94 93/93/93
f 96/96/96 95/95/95 93/93/93
f 99/99/99 98/98/98 97/97/97
f 100/100/100 99/99/99 97/97/97
f 103/103/103 102/102/102 101/101/101
f 104/104/104 103/103/103 101/101/101
f 107/107/107 106/106/106 105/105/105
f 108/108/108 107/107/107 105/105/105
f 111/111/111 110/110/110 109/109/109
f 112/112/112 111/111/111 109/109/109
f 115/115/115 114/114/114 113/113/113
f 116/116/116 115/115/115 113/113/113
f 119/119/119 118/118/118 117/117/117
f 120/120/120 119/119/119 117/117/117
f 123/123/123 122/122/122 121/121/121
f 124/124/124 123/123/123 121/121/121
f 127/127/127 126/126/126 125/125/125
f 128/128/128 127/127/127 125/125/125
f 131/131/131 130/130/130 129/129/129
f 132/132/132 131/131/131 129/129/129
f 135/135/135 134/134/134 133/133/133
f 136/136/136 135/135/135 133/133/133
f 139/139/139 138/138/138 137/137/137
f 140/140/140 139/139/139 137/137/137
f 143/143/143 142/142/142 141/141/141
f 144/144/144 143/143/143 141/141/141
f 147/147/147 146/146/146 145/145/145
f 148/148/148 147/147/147 145/145/145
f 151/151/151 150/150/150 149/149/149
f 152/152/152 151/151/151 149/149/149
f 155/155/155 154/154/154 153/153/153
f 156/156/156 155/155/155 153/153/153
f 159/159/159 158/158/158 157/157/157
f 160/160/160 159/159/159 157/157/157
f 163/163/163 162/162/162 161/161/161
f 164/164/164 163/163/163 161/161/161
f 167/167/167 166/166/166 165/165/165
f 168/168/168 167/167/167 165/165/165
f 171/171/171 170/170/170 169/169/169
f 172/172/172 171/171/171 169/169/169
f 175/175/175 174/174/174 173/173/173
f 176/176/176 175/175/175 173/173/173
f 179/179/179 178/178/178 177/177/177
f 180/180/180 179/179/179 177/177/177
f 183/183/183 182/182/182 181/181/181
f 184/184/184 183/183/183 181/181/181
f 187/187/187 186/186/186 185/185/185
f 188/188/188 187/187/187 185/185/185
f 191/191/191 190/190/190 189/189/189
f 192/192/192 191/191/191 189/189/189
f 195/195/195 194/194/194 193/193/193
f 196/196/196 195/195/195 193/193/193
f 199/199/199 198/198/198 197/197/197
f 200/200/200 199/199/199 197/197/197
f 203/203/203 202/202/202 201/201/201
f 204/204/204 203/203/203 201/201/201
f 207/207/207 206/206/206 205/205/205
f 208/208/208 207/207/207 205/205/205
f 211/211/211 210/210/210 209/209/209
f 212/212/212 211/211/211 209/209/209
f 215/215/215 214/214/214 213/213/213
f 216/216/216 215/215/215 213/213/213
f 219/219/219 218/218/218 217/217/217
f 220/220/220 219/219/219 217/217/217
f 223/223/223 222/222/222 221/221/221
f 224/224/224 223/223/223 221/221/221
f 227/227/227 226/226/226 225/225/225
f 228/228/228 227/227/227 225/225/225
f 231/231/231 230/230/230 229/229/229
f 232/232/232 231/231/231 229/229/229
f 235/235/235 234/234/234 233/233/233
f 236/236/236 235/235/235 233/233/233
f 239/239/239 238/238/238 237/237/237
f 240/240/240 239/239/239 237/237/237
f 243/243/243 242/242/242 241/241/241
f 244/244/244 243/243/243 241/241/241
f 247/247/247 246/246/246 245/245/245
f 248/248/248 247/247/247 245/245/245
f 251/251/251 250/250/250 249/249/249
f 252/252/252 251/251/251 249/249/249
f 255/255/255 254/254/254 253/253/253
f 256/256/256 255/255/255 253/253/253
f 259/259/259 258/258/258 257/257/257
f 260/260/260 259/259/259 257/257/257
f 263/263/263 262/262/262 261/261/261
f 264/264/264 263/263/263 261/261/261
f 267/267/267 266/266/266 265/265/265
f 268/268/268 267/267/267 265/265/265
f 271/271/271 270/270/270 269/269/269
f 272/272/272 271/271/271 269/269/269
f 275/275/275 274/274/274 273/273/273
f 276/276/276 275/275/275 273/273/273
f 279/279/279 278/278/278 277/277/277
f 280/280/280 279/279/279 277/277/277
f 283/283/283 282/282/282 281/281/281
f 284/284/284 283/283/283 281/281/281
f 287/287/287 286/286/286 285/285/285
f 288/288/288 287/287/287 285/285/285
f 291/291/291 290/290/290 289/289/289
f 292/292/292 291/291/291 289/289/289
f 295/295/295 294/294/294 293/293/293
f 296/296/296 295/295/295 293/293/293
f 299/299/299 298/298/298 297/297/297
f 300/300/300 299/299/299 297/297/297
f 303/303/303 302/302/302 301/301/301
f 304/304/304 303/303/303 301/301/301
f 307/307/307 306/306/306 305/305/305
f 308/308/308 307/307/307 305/305/305
f 311/311/311 310/310/310 309/309/309
f 312/312/312 311/311/311 309/309/309
f 315/315/315 314/314/314 313/313/313
f 316/316/316 315/315/315 313/313/313
f 319/319/319 318/318/318 317/317/317
f 320/320/320 319/319/319 317/317/317
f 323/323/323 322/322/322 321/321/321
f 324/324/324 323/323/323 321/321/321
f 327/327/327 326/326/326 325/325/325
f 328/328/328 327/327/327 325/325/325
f 331/331/331 330/330/330 329/329/329
f 332/332/332 331/331/331 329/329/329
f 335/335/335 334/334/334 333/333/333
f 336/336/336 335/335/335 333/333/333
f 339/339/339 338/338/338 337/337/337
f 340/340/340 339/339/339 337/337/337
f 343/343/343 342/342/342 341/341/341
f 344/344/344 343/343/343 341/341/341
f 347/347/347 346/346/346 345/345/345
f 348/348/348 347/347/347 345/345/345
f 351/351/351 350/350/350 349/349/349
f 352/352/352 351/351/351 349/349/349
f 355/355/355 354/354/354 353/353/353
f 356/356/356 355/355/355 353/353/353
f 359/359/359 358/358/358 357/357/357
f 360/360/360 359/359/359 357/357/357
f 363/363/363 362/362/362 361/361/361
f 364/364/364 363/363/363 361/361/361
f 367/367/367 366/366/366 365/365/365
f 368/368/368 367/367/367 365/365/365
f 371/371/371 370/370/370 369/369/369
f 372/372/372 371/371/371 369/369/369
f 375/375/375 374/374/374 373/373/373
f 376/376/376 375/375/375 373/373/373
f 379/379/379 378/378/378 377/377/377
f 380/380/380 379/379/379 377/377/377
f 383/383/383 382/382/382 381/381/381
f 384/384/384 383/383/383 381/381/381
f 387/387/387 386/386/386 385/385/385
f 388/388/388 387/387/387 385/385/385
f 391/391/391 390/390/390 389/389/389
f 392/392/392 391/391/391 389/389/389
f 395/395/395 394/394/394 393/393/393
f 396/396/396 395/395/395 393/393/393
f 399/399/399 398/398/398 397/397/397
f 400/400/400 399/399/399 397/397/397
f 403/403/403 402/402/402 401/401/401
f 404/404/404 403/403/403 401/401/401
f 407/407/407 406/406/406 405/405/405
f 408/408/408 407/407/407 405/405/405
f 411/411/411 410/410/410 409/409/409
f 412/412/412 411/411/411 409/409/409
f 415/415/415 414/414/414 413/413/413
f 416/416/416 415/415/415 413/413/413
f 419/419/419 418/418/418 417/417/417
f 420/420/420 419/419/419 417/417/417
