g ETFX_Rocket2
v -0.000218338741 -0.000218150308 0.0164328199
v 0.0247740429 0.0247742292 0.00883707032
v 0.0327933431 0.0131050022 0.00883707032
v -0.000218338741 -0.000218150308 0.0164328199
v -0.000218340298 0.0351264179 0.00883707032
v 0.0137037188 0.0325445831 0.00883707032
v -0.000218338741 -0.000218150308 0.0164328199
v -0.0252107214 0.0247742292 0.00883707032
v -0.0135470685 0.0327974409 0.00883707032
v -0.000218338741 -0.000218150308 0.0164328199
v -0.0355629064 -0.000218153407 0.00883707032
v -0.0329275727 0.0137126241 0.00883707032
v -0.000218338741 -0.000218150308 0.0164328199
v -0.0252107158 -0.025210537 0.00883707032
v -0.0334794596 -0.0139953643 0.00883707032
v -0.000218338741 -0.000218150308 0.0164328199
v -0.000218338333 -0.0355627201 0.00883707032
v -0.0136414133 -0.0327000655 0.00883707032
v -0.000218338741 -0.000218150308 0.0164328199
v 0.024774041 -0.025210537 0.00883707032
v 0.0131047284 -0.0332297795 0.00883707032
v -0.000218338741 -0.000218150308 0.0164328199
v 0.0351262279 -0.000218150308 0.00883707032
v 0.0325452238 -0.0141400676 0.00883707032
v -0.000218338741 -0.000218150308 0.0164328199
v 0.0327933431 0.0131050022 0.00883707032
v 0.0351262279 -0.000218150308 0.00883707032
v -0.000218338741 -0.000218150308 0.0164328199
v 0.0137037188 0.0325445831 0.00883707032
v 0.0247740429 0.0247742292 0.00883707032
v -0.000218338741 -0.000218150308 0.0164328199
v -0.0135470685 0.0327974409 0.00883707032
v -0.000218340298 0.0351264179 0.00883707032
v -0.000218338741 -0.000218150308 0.0164328199
v -0.0329275727 0.0137126241 0.00883707032
v -0.0252107214 0.0247742292 0.00883707032
v -0.000218338741 -0.000218150308 0.0164328199
v -0.0334794596 -0.0139953643 0.00883707032
v -0.0355629064 -0.000218153407 0.00883707032
v -0.000218338741 -0.000218150308 0.0164328199
v -0.0136414133 -0.0327000655 0.00883707032
v -0.0252107158 -0.025210537 0.00883707032
v -0.000218338741 -0.000218150308 0.0164328199
v 0.0131047284 -0.0332297795 0.00883707032
v -0.000218338333 -0.0355627201 0.00883707032
v -0.000218338741 -0.000218150308 0.0164328199
v 0.0325452238 -0.0141400676 0.00883707032
v 0.024774041 -0.025210537 0.00883707032
v 0.0351262279 -0.000218150308 0.00883707032
v 0.0327933431 0.0131050022 0.00883707032
v 0.0606785081 0.0243998207 -0.0127939414
v 0.0649891123 -0.000218150308 -0.0127939414
v 0.0247740429 0.0247742292 0.00883707032
v 0.0137037188 0.0325445831 0.00883707032
v 0.0254054833 0.0603194796 -0.0127939414
v 0.0458607674 0.0459617451 -0.0127939414
v -0.000218340298 0.0351264179 0.00883707032
v -0.0135470685 0.0327974409 0.00883707032
v -0.0249474011 0.0607866943 -0.0127939414
v -0.000319125422 0.06509009 -0.0127939414
v -0.0252107214 0.0247742292 0.00883707032
v -0.0329275727 0.0137126241 0.00883707032
v -0.0607578978 0.0255225636 -0.0127939414
v -0.0464990176 0.0459617451 -0.0127939414
v -0.0355629064 -0.000218153407 0.00883707032
v -0.0334794596 -0.0139953643 0.00883707032
v -0.0617776588 -0.025675118 -0.0127939414
v -0.0656273514 -0.000218156056 -0.0127939414
v -0.0252107158 -0.025210537 0.00883707032
v -0.0136414133 -0.0327000655 0.00883707032
v -0.0251217261 -0.060236901 -0.0127939414
v -0.0464990139 -0.0463980474 -0.0127939414
v -0.000218338333 -0.0355627201 0.00883707032
v 0.0131047284 -0.0332297795 0.00883707032
v 0.024298694 -0.0612156726 -0.0127939414
v -0.000319121813 -0.0655263811 -0.0127939414
v 0.024774041 -0.025210537 0.00883707032
v 0.0325452238 -0.0141400676 0.00883707032
v 0.0602200404 -0.025942497 -0.0127939414
v 0.0458607674 -0.0463980474 -0.0127939414
v 0.0649891123 -0.000218150308 -0.0127939414
v 0.0606785081 0.0243998207 -0.0127939414
v 0.0816484019 0.0328643322 -0.0451669879
v 0.0874410793 -0.000217755922 -0.0451669879
v 0.0458607674 0.0459617451 -0.0127939414
v 0.0254054833 0.0603194796 -0.0127939414
v 0.0342478603 0.0811338276 -0.0451669879
v 0.0617360584 0.0618396364 -0.0451669879
v -0.000319125422 0.06509009 -0.0127939414
v -0.0249474011 0.0607866943 -0.0127939414
v -0.0334172659 0.0817616731 -0.0451669879
v -0.000321340456 0.0875446573 -0.0451669879
v -0.0464990176 0.0459617451 -0.0127939414
v -0.0607578978 0.0255225636 -0.0127939414
v -0.0815400779 0.0343730934 -0.0451669879
v -0.0623787306 0.0618396364 -0.0451669879
v -0.0656273514 -0.000218156056 -0.0127939414
v -0.0617776588 -0.025675118 -0.0127939414
v -0.0829104483 -0.0344272964 -0.0451669879
v -0.0880837515 -0.000217763591 -0.0451669879
v -0.0464990139 -0.0463980474 -0.0127939414
v -0.0251217261 -0.060236901 -0.0127939414
v -0.0336515382 -0.0808720589 -0.0451669879
v -0.0623787194 -0.0622751601 -0.0451669879
v -0.000319121813 -0.0655263811 -0.0127939414
v 0.024298694 -0.0612156726 -0.0127939414
v 0.0327605382 -0.0821873546 -0.0451669879
v -0.000321335567 -0.0879801735 -0.0451669879
v 0.0458607674 -0.0463980474 -0.0127939414
v 0.0602200404 -0.025942497 -0.0127939414
v 0.081032306 -0.0347866006 -0.0451669879
v 0.0617360584 -0.0622751601 -0.0451669879
v 0.0874410793 -0.000217755922 -0.0451669879
v 0.0816484019 0.0328643322 -0.0451669879
v 0.0928753093 0.0373976789 -0.0833535939
v 0.0994616076 -0.000216862813 -0.0833535939
v 0.0617360584 0.0618396364 -0.0451669879
v 0.0342478603 0.0811338276 -0.0451669879
v 0.0389805846 0.0922803953 -0.0833535939
v 0.0702348426 0.0703427941 -0.0833535939
v -0.000321340456 0.0875446573 -0.0451669879
v -0.0334172659 0.0817616731 -0.0451669879
v -0.0379551016 0.0929942653 -0.0833535939
v -0.000324816821 0.0995695591 -0.0833535939
v -0.0623787306 0.0618396364 -0.0451669879
v -0.0815400779 0.0343730934 -0.0451669879
v -0.0926710293 0.039113149 -0.0833535939
v -0.0708844662 0.0703427941 -0.0833535939
v -0.0880837515 -0.000217763591 -0.0451669879
v -0.0829104483 -0.0344272964 -0.0451669879
v -0.0942291617 -0.0391133316 -0.0833535939
v -0.100111231 -0.000216871529 -0.0833535939
v -0.0623787194 -0.0622751601 -0.0451669879
v -0.0336515382 -0.0808720589 -0.0451669879
v -0.0382214598 -0.0919213146 -0.0833535939
v -0.0708844587 -0.0707765296 -0.0833535939
v -0.000321335567 -0.0879801735 -0.0451669879
v 0.0327605382 -0.0821873546 -0.0451669879
v 0.0372894891 -0.0934168249 -0.0833535939
v -0.000324811263 -0.100003287 -0.0833535939
v 0.0617360584 -0.0622751601 -0.0451669879
v 0.081032306 -0.0347866006 -0.0451669879
v 0.0921747983 -0.0395218655 -0.0833535939
v 0.0702348426 -0.0707765296 -0.0833535939
v -0.0617776588 -0.025675118 -0.0127939414
v -0.0334794596 -0.0139953643 0.00883707032
v -0.0252107158 -0.025210537 0.00883707032
v -0.0464990139 -0.0463980474 -0.0127939414
v -0.0829104483 -0.0344272964 -0.0451669879
v -0.0617776588 -0.025675118 -0.0127939414
v -0.0464990139 -0.0463980474 -0.0127939414
v -0.0623787194 -0.0622751601 -0.0451669879
v -0.0942291617 -0.0391133316 -0.0833535939
v -0.0829104483 -0.0344272964 -0.0451669879
v -0.0623787194 -0.0622751601 -0.0451669879
v -0.0708844587 -0.0707765296 -0.0833535939
v -0.0607578978 0.0255225636 -0.0127939414
v -0.0329275727 0.0137126241 0.00883707032
v -0.0355629064 -0.000218153407 0.00883707032
v -0.0656273514 -0.000218156056 -0.0127939414
v -0.0815400779 0.0343730934 -0.0451669879
v -0.0607578978 0.0255225636 -0.0127939414
v -0.0656273514 -0.000218156056 -0.0127939414
v -0.0880837515 -0.000217763591 -0.0451669879
v -0.0926710293 0.039113149 -0.0833535939
v -0.0815400779 0.0343730934 -0.0451669879
v -0.0880837515 -0.000217763591 -0.0451669879
v -0.100111231 -0.000216871529 -0.0833535939
v -0.0249474011 0.0607866943 -0.0127939414
v -0.0135470685 0.0327974409 0.00883707032
v -0.0252107214 0.0247742292 0.00883707032
v -0.0464990176 0.0459617451 -0.0127939414
v -0.0334172659 0.0817616731 -0.0451669879
v -0.0249474011 0.0607866943 -0.0127939414
v -0.0464990176 0.0459617451 -0.0127939414
v -0.0623787306 0.0618396364 -0.0451669879
v -0.0379551016 0.0929942653 -0.0833535939
v -0.0334172659 0.0817616731 -0.0451669879
v -0.0623787306 0.0618396364 -0.0451669879
v -0.0708844662 0.0703427941 -0.0833535939
v 0.0254054833 0.0603194796 -0.0127939414
v 0.0137037188 0.0325445831 0.00883707032
v -0.000218340298 0.0351264179 0.00883707032
v -0.000319125422 0.06509009 -0.0127939414
v 0.0342478603 0.0811338276 -0.0451669879
v 0.0254054833 0.0603194796 -0.0127939414
v -0.000319125422 0.06509009 -0.0127939414
v -0.000321340456 0.0875446573 -0.0451669879
v 0.0389805846 0.0922803953 -0.0833535939
v 0.0342478603 0.0811338276 -0.0451669879
v -0.000321340456 0.0875446573 -0.0451669879
v -0.000324816821 0.0995695591 -0.0833535939
v 0.0606785081 0.0243998207 -0.0127939414
v 0.0327933431 0.0131050022 0.00883707032
v 0.0247740429 0.0247742292 0.00883707032
v 0.0458607674 0.0459617451 -0.0127939414
v 0.0816484019 0.0328643322 -0.0451669879
v 0.0606785081 0.0243998207 -0.0127939414
v 0.0458607674 0.0459617451 -0.0127939414
v 0.0617360584 0.0618396364 -0.0451669879
v 0.0928753093 0.0373976789 -0.0833535939
v 0.0816484019 0.0328643322 -0.0451669879
v 0.0617360584 0.0618396364 -0.0451669879
v 0.0702348426 0.0703427941 -0.0833535939
v 0.0602200404 -0.025942497 -0.0127939414
v 0.0325452238 -0.0141400676 0.00883707032
v 0.0351262279 -0.000218150308 0.00883707032
v 0.0649891123 -0.000218150308 -0.0127939414
v 0.081032306 -0.0347866006 -0.0451669879
v 0.0602200404 -0.025942497 -0.0127939414
v 0.0649891123 -0.000218150308 -0.0127939414
v 0.0874410793 -0.000217755922 -0.0451669879
v 0.0921747983 -0.0395218655 -0.0833535939
v 0.081032306 -0.0347866006 -0.0451669879
v 0.0874410793 -0.000217755922 -0.0451669879
v 0.0994616076 -0.000216862813 -0.0833535939
v 0.024298694 -0.0612156726 -0.0127939414
v 0.0131047284 -0.0332297795 0.00883707032
v 0.024774041 -0.025210537 0.00883707032
v 0.0458607674 -0.0463980474 -0.0127939414
v 0.0327605382 -0.0821873546 -0.0451669879
v 0.024298694 -0.0612156726 -0.0127939414
v 0.0458607674 -0.0463980474 -0.0127939414
v 0.0617360584 -0.0622751601 -0.0451669879
v 0.0372894891 -0.0934168249 -0.0833535939
v 0.0327605382 -0.0821873546 -0.0451669879
v 0.0617360584 -0.0622751601 -0.0451669879
v 0.0702348426 -0.0707765296 -0.0833535939
v -0.0251217261 -0.060236901 -0.0127939414
v -0.0136414133 -0.0327000655 0.00883707032
v -0.000218338333 -0.0355627201 0.00883707032
v -0.000319121813 -0.0655263811 -0.0127939414
v -0.0336515382 -0.0808720589 -0.0451669879
v -0.0251217261 -0.060236901 -0.0127939414
v -0.000319121813 -0.0655263811 -0.0127939414
v -0.000321335567 -0.0879801735 -0.0451669879
v -0.0382214598 -0.0919213146 -0.0833535939
v -0.0336515382 -0.0808720589 -0.0451669879
v -0.000321335567 -0.0879801735 -0.0451669879
v -0.000324811263 -0.100003287 -0.0833535939
v 0.0994616076 -0.000216862813 -0.0833535939
v 0.0928753093 0.0373976789 -0.0833535939
v 0.100986123 0.0406754352 -0.138804093
v 0.10814593 -0.000214394589 -0.138804093
v 0.0702348426 0.0703427941 -0.0833535939
v 0.0389805846 0.0922803953 -0.0833535939
v 0.0423985198 0.100337066 -0.138804093
v 0.0763742402 0.0764892399 -0.138804093
v -0.000324816821 0.0995695591 -0.0833535939
v -0.0379551016 0.0929942653 -0.0833535939
v -0.0412363373 0.101113096 -0.138804093
v -0.000329396949 0.108260922 -0.138804093
v -0.0708844662 0.0703427941 -0.0833535939
v -0.0926710293 0.039113149 -0.0833535939
v -0.100716665 0.0425402783 -0.138804093
v -0.077033028 0.0764892399 -0.138804093
v -0.100111231 -0.000216871529 -0.0833535939
v -0.0942291617 -0.0391133316 -0.0833535939
v -0.102410465 -0.0424977727 -0.138804093
v -0.108804718 -0.000214404063 -0.138804093
v -0.0708844587 -0.0707765296 -0.0833535939
v -0.0382214598 -0.0919213146 -0.0833535939
v -0.0415258892 -0.0999040082 -0.138804093
v -0.0770330206 -0.0769180432 -0.138804093
v -0.000324811263 -0.100003287 -0.0833535939
v 0.0372894891 -0.0934168249 -0.0833535939
v 0.0405601785 -0.10152974 -0.138804093
v -0.000329390896 -0.108689725 -0.138804093
v 0.0702348426 -0.0707765296 -0.0833535939
v 0.0921747983 -0.0395218655 -0.0833535939
v 0.100224614 -0.0429418795 -0.138804093
v 0.0763742402 -0.0769180432 -0.138804093
v -0.0942291617 -0.0391133316 -0.0833535939
v -0.0708844587 -0.0707765296 -0.0833535939
v -0.0770330206 -0.0769180432 -0.138804093
v -0.102410465 -0.0424977727 -0.138804093
v -0.0926710293 0.039113149 -0.0833535939
v -0.100111231 -0.000216871529 -0.0833535939
v -0.108804718 -0.000214404063 -0.138804093
v -0.100716665 0.0425402783 -0.138804093
v -0.0379551016 0.0929942653 -0.0833535939
v -0.0708844662 0.0703427941 -0.0833535939
v -0.077033028 0.0764892399 -0.138804093
v -0.0412363373 0.101113096 -0.138804093
v 0.0389805846 0.0922803953 -0.0833535939
v -0.000324816821 0.0995695591 -0.0833535939
v -0.000329396949 0.108260922 -0.138804093
v 0.0423985198 0.100337066 -0.138804093
v 0.0928753093 0.0373976789 -0.0833535939
v 0.0702348426 0.0703427941 -0.0833535939
v 0.0763742402 0.0764892399 -0.138804093
v 0.100986123 0.0406754352 -0.138804093
v 0.0921747983 -0.0395218655 -0.0833535939
v 0.0994616076 -0.000216862813 -0.0833535939
v 0.10814593 -0.000214394589 -0.138804093
v 0.100224614 -0.0429418795 -0.138804093
v 0.0372894891 -0.0934168249 -0.0833535939
v 0.0702348426 -0.0707765296 -0.0833535939
v 0.0763742402 -0.0769180432 -0.138804093
v 0.0405601785 -0.10152974 -0.138804093
v -0.0382214598 -0.0919213146 -0.0833535939
v -0.000324811263 -0.100003287 -0.0833535939
v -0.000329390896 -0.108689725 -0.138804093
v -0.0415258892 -0.0999040082 -0.138804093
v 0.10620039 -0.000214947548 -0.382826835
v 0.10814593 -0.000214394589 -0.138804093
v 0.100986123 0.0406754352 -0.138804093
v 0.0991690606 0.0399411209 -0.382826835
v 0.0749988407 0.075112246 -0.382826835
v 0.0763742402 0.0764892399 -0.138804093
v 0.0423985198 0.100337066 -0.138804093
v 0.0416328087 0.0985321179 -0.382826835
v -0.000328370894 0.106313787 -0.382826835
v -0.000329396949 0.108260922 -0.138804093
v -0.0412363373 0.101113096 -0.138804093
v -0.0405012406 0.0992942303 -0.382826835
v -0.0756555572 0.075112246 -0.382826835
v -0.077033028 0.0764892399 -0.138804093
v -0.100716665 0.0425402783 -0.138804093
v -0.0989141837 0.0417724997 -0.382826835
v -0.106857106 -0.000214956846 -0.382826835
v -0.108804718 -0.000214404063 -0.138804093
v -0.102410465 -0.0424977727 -0.138804093
v -0.100577608 -0.0417395532 -0.382826835
v -0.0756555572 -0.0755421594 -0.382826835
v -0.0770330206 -0.0769180432 -0.138804093
v -0.0415258892 -0.0999040082 -0.138804093
v -0.040785592 -0.0981156603 -0.382826835
v -0.000328364928 -0.106743716 -0.382826835
v -0.000329390896 -0.108689725 -0.138804093
v 0.0405601785 -0.10152974 -0.138804093
v 0.0398274474 -0.0997122154 -0.382826835
v 0.0749988407 -0.0755421594 -0.382826835
v 0.0763742402 -0.0769180432 -0.138804093
v 0.100224614 -0.0429418795 -0.138804093
v 0.0984212309 -0.0421756916 -0.382826835
v -0.100577608 -0.0417395532 -0.382826835
v -0.102410465 -0.0424977727 -0.138804093
v -0.0770330206 -0.0769180432 -0.138804093
v -0.0756555572 -0.0755421594 -0.382826835
v -0.0989141837 0.0417724997 -0.382826835
v -0.100716665 0.0425402783 -0.138804093
v -0.108804718 -0.000214404063 -0.138804093
v -0.106857106 -0.000214956846 -0.382826835
v -0.0405012406 0.0992942303 -0.382826835
v -0.0412363373 0.101113096 -0.138804093
v -0.077033028 0.0764892399 -0.138804093
v -0.0756555572 0.075112246 -0.382826835
v 0.0416328087 0.0985321179 -0.382826835
v 0.0423985198 0.100337066 -0.138804093
v -0.000329396949 0.108260922 -0.138804093
v -0.000328370894 0.106313787 -0.382826835
v 0.0991690606 0.0399411209 -0.382826835
v 0.100986123 0.0406754352 -0.138804093
v 0.0763742402 0.0764892399 -0.138804093
v 0.0749988407 0.075112246 -0.382826835
v 0.0984212309 -0.0421756916 -0.382826835
v 0.100224614 -0.0429418795 -0.138804093
v 0.10814593 -0.000214394589 -0.138804093
v 0.10620039 -0.000214947548 -0.382826835
v 0.0398274474 -0.0997122154 -0.382826835
v 0.0405601785 -0.10152974 -0.138804093
v 0.0763742402 -0.0769180432 -0.138804093
v 0.0749988407 -0.0755421594 -0.382826835
v -0.040785592 -0.0981156603 -0.382826835
v -0.0415258892 -0.0999040082 -0.138804093
v -0.000329390896 -0.108689725 -0.138804093
v -0.000328364928 -0.106743716 -0.382826835
vt 0.744627893 1
vt 0.87463522 0.980975389
vt 0.810850441 0.980975389
vt 0.744627893 1
vt 0.999499798 0.980975389
vt 0.935585856 0.980975389
vt 0.744627893 1
vt 1.12465751 0.980975389
vt 1.06061316 0.980975389
vt 1.74462795 1
vt 1.25001693 0.980975389
vt 1.18573952 0.980975389
vt 0.744627893 1
vt 0.37536633 0.980975389
vt 0.312703788 0.980975389
vt 0.744627893 1
vt 0.500500023 0.980975389
vt 0.43810302 0.980975389
vt 0.744627893 1
vt 0.625340819 0.980975389
vt 0.561504543 0.980975389
vt 0.744627893 1
vt 0.749983132 0.980975389
vt 0.686229169 0.980975389
vt 0.744627893 1
vt 0.810850441 0.980975389
vt 0.749983132 0.980975389
vt 0.744627893 1
vt 0.935585856 0.980975389
vt 0.87463522 0.980975389
vt 0.744627893 1
vt 1.06061316 0.980975389
vt 0.999499798 0.980975389
vt 0.744627893 1
vt 1.18573952 0.980975389
vt 1.12465751 0.980975389
vt 0.744627893 1
vt 0.312703788 0.980975389
vt 0.250016928 0.980975389
vt 0.744627893 1
vt 0.43810302 0.980975389
vt 0.37536633 0.980975389
vt 0.744627893 1
vt 0.561504543 0.980975389
vt 0.500500023 0.980975389
vt 0.744627893 1
vt 0.686229169 0.980975389
vt 0.625340819 0.980975389
vt 0.749983132 0.980975389
vt 0.810850441 0.980975389
vt 0.811033487 0.926797569
vt 0.749990821 0.926797569
vt 0.87463522 0.980975389
vt 0.935585856 0.980975389
vt 0.93602252 0.926797569
vt 0.874975801 0.926797569
vt 0.999499798 0.980975389
vt 1.06061316 0.980975389
vt 1.06104827 0.926797569
vt 0.999974906 0.926797569
vt 0.124657542 0.980975389
vt 0.185739487 0.980975389
vt 0.185917944 0.926797569
vt 0.124988735 0.926797569
vt 0.250016928 0.980975389
vt 0.312703788 0.980975389
vt 0.312517703 0.926797569
vt 0.25000912 0.926797569
vt 0.37536633 0.980975389
vt 0.43810302 0.980975389
vt 0.437658012 0.926797569
vt 0.37502414 0.926797569
vt 0.500500023 0.980975389
vt 0.561504543 0.980975389
vt 0.561070621 0.926797569
vt 0.500024974 0.926797569
vt 0.625340819 0.980975389
vt 0.686229169 0.980975389
vt 0.686052322 0.926797569
vt 0.625011206 0.926797569
vt 0.749990821 0.926797569
vt 0.811033487 0.926797569
vt 0.811040223 0.845714927
vt 0.749993861 0.845714927
vt 0.874975801 0.926797569
vt 0.93602252 0.926797569
vt 0.936033189 0.845714927
vt 0.874985337 0.845714927
vt 0.999974906 0.926797569
vt 1.06104827 0.926797569
vt 1.06105661 0.845714927
vt 0.999985337 0.845714927
vt 0.124988735 0.926797569
vt 0.185917944 0.926797569
vt 0.185919225 0.845714927
vt 0.12499395 0.845714927
vt 0.25000912 0.926797569
vt 0.312517703 0.926797569
vt 0.312510997 0.845714927
vt 0.25000608 0.845714927
vt 0.37502414 0.926797569
vt 0.437658012 0.926797569
vt 0.437647164 0.845714927
vt 0.375014633 0.845714927
vt 0.500024974 0.926797569
vt 0.561070621 0.926797569
vt 0.561062157 0.845714927
vt 0.500014603 0.845714927
vt 0.625011206 0.926797569
vt 0.686052322 0.926797569
vt 0.686051071 0.845714927
vt 0.62500596 0.845714927
vt 0.749993861 0.845714927
vt 0.811040223 0.845714927
vt 0.811044931 0.750071406
vt 0.749996066 0.750071406
vt 0.874985337 0.845714927
vt 0.936033189 0.845714927
vt 0.936040699 0.750071406
vt 0.874992013 0.750071406
vt 0.999985337 0.845714927
vt 1.06105661 0.845714927
vt 1.06106257 0.750071406
vt 0.999992609 0.750071406
vt 0.12499395 0.845714927
vt 0.185919225 0.845714927
vt 0.185920089 0.750071406
vt 0.124997586 0.750071406
vt 0.25000608 0.845714927
vt 0.312510997 0.845714927
vt 0.312506318 0.750071406
vt 0.250003904 0.750071406
vt 0.375014633 0.845714927
vt 0.437647164 0.845714927
vt 0.437639534 0.750071406
vt 0.375007927 0.750071406
vt 0.500014603 0.845714927
vt 0.561062157 0.845714927
vt 0.561056256 0.750071406
vt 0.500007272 0.750071406
vt 0.62500596 0.845714927
vt 0.686051071 0.845714927
vt 0.686050177 0.750071406
vt 0.625002325 0.750071406
vt 0.312517703 0.926797569
vt 0.312703788 0.980975389
vt 0.37536633 0.980975389
vt 0.37502414 0.926797569
vt 0.312510997 0.845714927
vt 0.312517703 0.926797569
vt 0.37502414 0.926797569
vt 0.375014633 0.845714927
vt 0.312506318 0.750071406
vt 0.312510997 0.845714927
vt 0.375014633 0.845714927
vt 0.375007927 0.750071406
vt 0.185917944 0.926797569
vt 0.185739487 0.980975389
vt 0.250016928 0.980975389
vt 0.25000912 0.926797569
vt 0.185919225 0.845714927
vt 0.185917944 0.926797569
vt 0.25000912 0.926797569
vt 0.25000608 0.845714927
vt 0.185920089 0.750071406
vt 0.185919225 0.845714927
vt 0.25000608 0.845714927
vt 0.250003904 0.750071406
vt 0.0610482097 0.926797569
vt 0.060613215 0.980975389
vt 0.124657542 0.980975389
vt 0.124988735 0.926797569
vt 0.0610566437 0.845714927
vt 0.0610482097 0.926797569
vt 0.124988735 0.926797569
vt 0.12499395 0.845714927
vt 0.0610625744 0.750071406
vt 0.0610566437 0.845714927
vt 0.12499395 0.845714927
vt 0.124997586 0.750071406
vt 0.93602252 0.926797569
vt 0.935585856 0.980975389
vt 0.999499798 0.980975389
vt 0.999974906 0.926797569
vt 0.936033189 0.845714927
vt 0.93602252 0.926797569
vt 0.999974906 0.926797569
vt 0.999985337 0.845714927
vt 0.936040699 0.750071406
vt 0.936033189 0.845714927
vt 0.999985337 0.845714927
vt 0.999992609 0.750071406
vt 0.811033487 0.926797569
vt 0.810850441 0.980975389
vt 0.87463522 0.980975389
vt 0.874975801 0.926797569
vt 0.811040223 0.845714927
vt 0.811033487 0.926797569
vt 0.874975801 0.926797569
vt 0.874985337 0.845714927
vt 0.811044931 0.750071406
vt 0.811040223 0.845714927
vt 0.874985337 0.845714927
vt 0.874992013 0.750071406
vt 0.686052322 0.926797569
vt 0.686229169 0.980975389
vt 0.749983132 0.980975389
vt 0.749990821 0.926797569
vt 0.686051071 0.845714927
vt 0.686052322 0.926797569
vt 0.749990821 0.926797569
vt 0.749993861 0.845714927
vt 0.686050177 0.750071406
vt 0.686051071 0.845714927
vt 0.749993861 0.845714927
vt 0.749996066 0.750071406
vt 0.561070621 0.926797569
vt 0.561504543 0.980975389
vt 0.625340819 0.980975389
vt 0.625011206 0.926797569
vt 0.561062157 0.845714927
vt 0.561070621 0.926797569
vt 0.625011206 0.926797569
vt 0.62500596 0.845714927
vt 0.561056256 0.750071406
vt 0.561062157 0.845714927
vt 0.62500596 0.845714927
vt 0.625002325 0.750071406
vt 0.437658012 0.926797569
vt 0.43810302 0.980975389
vt 0.500500023 0.980975389
vt 0.500024974 0.926797569
vt 0.437647164 0.845714927
vt 0.437658012 0.926797569
vt 0.500024974 0.926797569
vt 0.500014603 0.845714927
vt 0.437639534 0.750071406
vt 0.437647164 0.845714927
vt 0.500014603 0.845714927
vt 0.500007272 0.750071406
vt 0.749996066 0.750071406
vt 0.811044931 0.750071406
vt 0.81105125 0.611188054
vt 0.74999994 0.611188054
vt 0.874992013 0.750071406
vt 0.936040699 0.750071406
vt 0.936048865 0.611188054
vt 0.87499994 0.611188054
vt -7.39097595E-06 0.750071406
vt 0.0610625744 0.750071406
vt 0.0610678494 0.611188054
vt 0 0.611188054
vt 0.124997586 0.750071406
vt 0.185920089 0.750071406
vt 0.185919344 0.611188054
vt 0.12499997 0.611188054
vt 0.250003904 0.750071406
vt 0.312506318 0.750071406
vt 0.3125 0.611188054
vt 0.24999997 0.611188054
vt 0.375007927 0.750071406
vt 0.437639534 0.750071406
vt 0.437631249 0.611188054
vt 0.375 0.611188054
vt 0.500007272 0.750071406
vt 0.561056256 0.750071406
vt 0.561051011 0.611188054
vt 0.49999997 0.611188054
vt 0.625002325 0.750071406
vt 0.686050177 0.750071406
vt 0.686050951 0.611188054
vt 0.62499994 0.611188054
vt 0.312506318 0.750071406
vt 0.375007927 0.750071406
vt 0.375 0.611188054
vt 0.3125 0.611188054
vt 0.185920089 0.750071406
vt 0.250003904 0.750071406
vt 0.24999997 0.611188054
vt 0.185919344 0.611188054
vt 0.0610625744 0.750071406
vt 0.124997586 0.750071406
vt 0.12499997 0.611188054
vt 0.0610678494 0.611188054
vt 0.936040699 0.750071406
vt 0.999992609 0.750071406
vt 1 0.611188054
vt 0.936048865 0.611188054
vt 0.811044931 0.750071406
vt 0.874992013 0.750071406
vt 0.87499994 0.611188054
vt 0.81105125 0.611188054
vt 0.686050177 0.750071406
vt 0.749996066 0.750071406
vt 0.74999994 0.611188054
vt 0.686050951 0.611188054
vt 0.561056256 0.750071406
vt 0.625002325 0.750071406
vt 0.62499994 0.611188054
vt 0.561051011 0.611188054
vt 0.437639534 0.750071406
vt 0.500007272 0.750071406
vt 0.49999997 0.611188054
vt 0.437631249 0.611188054
vt 0.749999166 0
vt 0.74999994 0.611188054
vt 0.81105125 0.611188054
vt 0.811049938 0
vt 0.874998271 0
vt 0.87499994 0.611188054
vt 0.936048865 0.611188054
vt 0.936047196 0
vt 0.99999845 0
vt 1 0.611188054
vt 1.06106782 0.611188054
vt 1.06106675 0
vt 0.124999493 0
vt 0.12499997 0.611188054
vt 0.185919344 0.611188054
vt 0.185919493 0
vt 0.250000834 0
vt 0.24999997 0.611188054
vt 0.3125 0.611188054
vt 0.312501311 0
vt 0.375001669 0
vt 0.375 0.611188054
vt 0.437631249 0.611188054
vt 0.437632978 0
vt 0.50000149 0
vt 0.49999997 0.611188054
vt 0.561051011 0.611188054
vt 0.561052084 0
vt 0.625000477 0
vt 0.62499994 0.611188054
vt 0.686050951 0.611188054
vt 0.686050773 0
vt 0.312501311 0
vt 0.3125 0.611188054
vt 0.375 0.611188054
vt 0.375001669 0
vt 0.185919493 0
vt 0.185919344 0.611188054
vt 0.24999997 0.611188054
vt 0.250000834 0
vt 0.0610667467 0
vt 0.0610678494 0.611188054
vt 0.12499997 0.611188054
vt 0.124999493 0
vt 0.936047196 0
vt 0.936048865 0.611188054
vt 1 0.611188054
vt 0.99999845 0
vt 0.811049938 0
vt 0.81105125 0.611188054
vt 0.87499994 0.611188054
vt 0.874998271 0
vt 0.686050773 0
vt 0.686050951 0.611188054
vt 0.74999994 0.611188054
vt 0.749999166 0
vt 0.561052084 0
vt 0.561051011 0.611188054
vt 0.62499994 0.611188054
vt 0.625000477 0
vt 0.437632978 0
vt 0.437631249 0.611188054
vt 0.49999997 0.611188054
vt 0.50000149 0
vn 0.175978035 0.120935269 0.976937175
vn 0.17597802 0.120935261 0.976937175
vn 0.175978035 0.120935269 0.976937175
vn 0.0389349423 0.20994927 0.976936758
vn 0.0389349423 0.209949285 0.976936758
vn 0.0389349423 0.20994927 0.976936758
vn -0.121004909 0.175909489 0.97694093
vn -0.121004917 0.175909504 0.97694093
vn -0.121004909 0.175909474 0.97694093
vn -0.209942847 0.0397156216 0.976906717
vn -0.209942833 0.0397156216 0.976906717
vn -0.209942833 0.0397156216 0.976906717
vn -0.170950115 -0.126038432 0.977184951
vn -0.170950115 -0.126038447 0.977184951
vn -0.170950115 -0.126038432 0.977184951
vn -0.0447635874 -0.20989795 0.976697981
vn -0.04476358 -0.20989795 0.976697981
vn -0.04476358 -0.20989795 0.976697981
vn 0.120934151 -0.175979048 0.976937175
vn 0.120934166 -0.175979078 0.976937175
vn 0.120934159 -0.175979063 0.976937175
vn 0.209949374 -0.0389228165 0.976937175
vn 0.209949374 -0.0389228091 0.976937175
vn 0.209949374 -0.0389228091 0.976937175
vn 0.20996654 0.0367650986 0.977017045
vn 0.209966525 0.0367650986 0.977017045
vn 0.20996654 0.0367650986 0.977017045
vn 0.122464247 0.174473241 0.977016747
vn 0.122464232 0.174473226 0.977016747
vn 0.122464232 0.174473226 0.977016747
vn -0.0366883092 0.209967107 0.977019787
vn -0.0366883054 0.209967107 0.977019787
vn -0.0366883092 0.209967077 0.977019787
vn -0.174909383 0.122021168 0.976994216
vn -0.174909383 0.122021168 0.976994216
vn -0.174909368 0.122021168 0.976994216
vn -0.210002556 -0.0317574628 0.977184951
vn -0.210002571 -0.0317574665 0.977184951
vn -0.210002571 -0.0317574702 0.977184951
vn -0.116648279 -0.180190116 0.97669071
vn -0.116648279 -0.180190116 0.97669071
vn -0.116648279 -0.180190086 0.97669071
vn 0.036766272 -0.209966511 0.977017045
vn 0.0367662758 -0.209966496 0.977017045
vn 0.036766272 -0.209966481 0.977017045
vn 0.174466521 -0.122470967 0.977016985
vn 0.174466521 -0.12247096 0.977017045
vn 0.174466535 -0.12247096 0.977017045
vn 0.583549142 0.102179378 0.805623889
vn 0.583549142 0.102179378 0.805623889
vn 0.583549142 0.102179371 0.805623829
vn 0.583549082 0.102179378 0.805623889
vn 0.340047002 0.484460652 0.806018591
vn 0.340047002 0.484460652 0.806018591
vn 0.340047002 0.484460652 0.806018591
vn 0.340047002 0.484460682 0.806018531
vn -0.10170614 0.58206296 0.806758106
vn -0.101706147 0.5820629 0.806758106
vn -0.10170614 0.5820629 0.806758106
vn -0.101706147 0.58206296 0.806758106
vn -0.484094799 0.337716579 0.8072173
vn -0.484094739 0.337716579 0.8072173
vn -0.484094739 0.337716579 0.8072173
vn -0.484094799 0.337716579 0.8072173
vn -0.581766427 -0.0879769996 0.808583856
vn -0.581766427 -0.0879769847 0.808583856
vn -0.581766427 -0.0879769847 0.808583856
vn -0.581766427 -0.0879769921 0.808583856
vn -0.322374851 -0.497982115 0.805039227
vn -0.322374851 -0.497982055 0.805039227
vn -0.32237488 -0.497982115 0.805039227
vn -0.32237488 -0.497982115 0.805039227
vn 0.101998091 -0.582496047 0.806408584
vn 0.101998098 -0.582496047 0.806408584
vn 0.101998091 -0.582495987 0.806408584
vn 0.101998098 -0.582496047 0.806408584
vn 0.484706044 -0.340251207 0.805784881
vn 0.484706044 -0.340251178 0.805784881
vn 0.484706104 -0.340251178 0.805784881
vn 0.484706044 -0.340251178 0.805784881
vn 0.813341737 0.142416105 0.564085841
vn 0.813341737 0.142416105 0.564085841
vn 0.813341796 0.142416105 0.564085841
vn 0.813341737 0.142416105 0.564085841
vn 0.474375635 0.6758371 0.56410265
vn 0.474375665 0.6758371 0.56410265
vn 0.474375635 0.6758371 0.56410265
vn 0.474375665 0.6758371 0.56410265
vn -0.142118618 0.813342571 0.564159632
vn -0.142118648 0.813342571 0.564159691
vn -0.142118648 0.813342571 0.564159632
vn -0.142118648 0.813342571 0.564159691
vn -0.677278697 0.472486466 0.56395936
vn -0.677278697 0.472486466 0.563959301
vn -0.677278697 0.472486466 0.563959301
vn -0.677278697 0.472486466 0.563959301
vn -0.815396011 -0.123307377 0.565618932
vn -0.815395892 -0.123307355 0.565618932
vn -0.815395892 -0.123307355 0.565618932
vn -0.815396011 -0.123307377 0.565618873
vn -0.449739099 -0.694725394 0.561329901
vn -0.449739099 -0.694725394 0.561329901
vn -0.449739099 -0.694725394 0.561329901
vn -0.449739099 -0.694725394 0.561329901
vn 0.142417684 -0.813325465 0.564108908
vn 0.142417684 -0.813325465 0.564108908
vn 0.142417684 -0.813325465 0.564108908
vn 0.142417669 -0.813325465 0.564108908
vn 0.675825179 -0.474411726 0.564086676
vn 0.675825179 -0.474411696 0.564086676
vn 0.675825179 -0.474411696 0.564086676
vn 0.675825179 -0.474411696 0.564086676
vn 0.94082433 0.164738312 0.296160311
vn 0.94082433 0.164738283 0.296160281
vn 0.94082433 0.164738268 0.296160251
vn 0.94082433 0.164738312 0.296160311
vn 0.548728764 0.781767368 0.296203554
vn 0.548728764 0.781767309 0.296203554
vn 0.548728764 0.781767368 0.296203554
vn 0.548728764 0.781767368 0.296203554
vn -0.164397538 0.940844595 0.296285391
vn -0.164397538 0.940844595 0.296285391
vn -0.164397523 0.940844595 0.296285391
vn -0.164397538 0.940844595 0.296285391
vn -0.783349872 0.546484292 0.296171993
vn -0.783349872 0.546484292 0.296172023
vn -0.783349872 0.546484292 0.296171993
vn -0.783349872 0.546484351 0.296172023
vn -0.944039106 -0.14276129 0.297336966
vn -0.944039106 -0.14276132 0.297336966
vn -0.944039106 -0.142761305 0.297336966
vn -0.944039106 -0.142761305 0.297336966
vn -0.519365132 -0.802278936 0.294292957
vn -0.519365191 -0.802278936 0.294292957
vn -0.519365132 -0.802278936 0.294292986
vn -0.519365132 -0.802278936 0.294292957
vn 0.164741099 -0.940811038 0.296200991
vn 0.164741099 -0.940811038 0.296200991
vn 0.164741099 -0.940811038 0.296200931
vn 0.164741084 -0.940811038 0.296200991
vn 0.781754732 -0.548771262 0.296158105
vn 0.781754732 -0.548771262 0.296158046
vn 0.781754732 -0.548771262 0.296158046
vn 0.781754732 -0.548771262 0.296158075
vn -0.473773003 -0.349304289 0.808409333
vn -0.473773003 -0.349304289 0.808409333
vn -0.473773092 -0.349304289 0.808409333
vn -0.473773003 -0.349304289 0.808409333
vn -0.663768947 -0.48938489 0.565608621
vn -0.663768947 -0.48938483 0.565608621
vn -0.663769066 -0.48938489 0.56560868
vn -0.663768947 -0.48938483 0.565608621
vn -0.768489659 -0.566593647 0.297313392
vn -0.768489659 -0.566593647 0.297313392
vn -0.768489659 -0.566593647 0.297313392
vn -0.768489659 -0.566593647 0.297313392
vn -0.580498874 0.109814912 0.806822062
vn -0.580498815 0.109814912 0.806822062
vn -0.580498815 0.109814912 0.806822062
vn -0.580498815 0.109814912 0.806822062
vn -0.811915278 0.153592795 0.563207746
vn -0.811915278 0.15359278 0.563207746
vn -0.811915278 0.15359278 0.563207746
vn -0.811915278 0.15359278 0.563207746
vn -0.938649476 0.177567735 0.295646757
vn -0.938649476 0.177567706 0.295646757
vn -0.938649476 0.17756772 0.295646727
vn -0.938649476 0.17756772 0.295646727
vn -0.334970236 0.486959368 0.80663842
vn -0.334970236 0.486959368 0.80663842
vn -0.334970236 0.486959368 0.80663842
vn -0.334970236 0.486959368 0.80663842
vn -0.468197942 0.680637956 0.563491642
vn -0.468197942 0.680637956 0.563491642
vn -0.468197912 0.680637836 0.563491642
vn -0.468197942 0.680637956 0.563491642
vn -0.541374087 0.787017226 0.295834422
vn -0.541374087 0.787017167 0.295834422
vn -0.541374087 0.787017226 0.295834422
vn -0.541374087 0.787017226 0.295834422
vn 0.107957639 0.582140803 0.80588913
vn 0.107957639 0.582140803 0.80588913
vn 0.107957639 0.582140803 0.80588913
vn 0.107957624 0.582140803 0.80588913
vn 0.150643259 0.812315404 0.563427269
vn 0.150643274 0.812315404 0.563427329
vn 0.150643304 0.812315404 0.563427329
vn 0.150643274 0.812315404 0.563427329
vn 0.174183205 0.939250112 0.295752347
vn 0.174183205 0.939250112 0.295752317
vn 0.17418322 0.939250112 0.295752287
vn 0.17418319 0.939250112 0.295752317
vn 0.488645107 0.335805774 0.805270493
vn 0.488645107 0.335805714 0.805270493
vn 0.488645107 0.335805714 0.805270493
vn 0.488645107 0.335805714 0.805270493
vn 0.680897713 0.467925161 0.563404322
vn 0.680897713 0.467925161 0.563404322
vn 0.680897713 0.467925161 0.563404322
vn 0.680897713 0.467925161 0.563404322
vn 0.787296116 0.541043937 0.295696259
vn 0.787296116 0.541043937 0.295696259
vn 0.787296116 0.541043997 0.295696259
vn 0.787296057 0.541043937 0.295696259
vn 0.583180785 -0.108116716 0.805115461
vn 0.583180785 -0.108116731 0.805115461
vn 0.583180845 -0.108116731 0.805115461
vn 0.583180845 -0.108116731 0.805115461
vn 0.812347174 -0.150602326 0.563392401
vn 0.812347174 -0.150602311 0.563392401
vn 0.812347174 -0.150602326 0.56339246
vn 0.812347174 -0.150602311 0.563392401
vn 0.939285457 -0.17413567 0.295668006
vn 0.939285457 -0.174135655 0.295668006
vn 0.939285576 -0.17413567 0.295668006
vn 0.939285457 -0.174135655 0.295668006
vn 0.335610211 -0.488367826 0.805520177
vn 0.335610151 -0.488367766 0.805520177
vn 0.335610151 -0.488367766 0.805520177
vn 0.335610151 -0.488367826 0.805520177
vn 0.467920363 -0.680901051 0.563404202
vn 0.467920393 -0.680901051 0.563404202
vn 0.467920393 -0.680901051 0.563404202
vn 0.467920393 -0.680901051 0.563404202
vn 0.541039824 -0.787301958 0.295688093
vn 0.541039824 -0.787302017 0.295688093
vn 0.541039824 -0.787301958 0.295688093
vn 0.541039944 -0.787301958 0.295688093
vn -0.123809092 -0.580545962 0.804759383
vn -0.123809107 -0.580545962 0.804759383
vn -0.123809099 -0.580545962 0.804759443
vn -0.123809077 -0.580545902 0.804759443
vn -0.172606438 -0.809358299 0.561378837
vn -0.172606438 -0.809358299 0.561378837
vn -0.172606453 -0.809358299 0.561378896
vn -0.172606409 -0.809358299 0.561378837
vn -0.19933562 -0.934691668 0.294307381
vn -0.19933562 -0.934691668 0.294307381
vn -0.19933562 -0.934691668 0.294307381
vn -0.199335635 -0.934691668 0.294307411
vn 0.973496974 0.170459226 0.152470767
vn 0.973496974 0.170459226 0.152470767
vn 0.973496974 0.170459241 0.152470767
vn 0.973496974 0.170459241 0.152470767
vn 0.567787468 0.808920324 0.152529985
vn 0.567787468 0.808920324 0.152529985
vn 0.567787468 0.808920324 0.152529985
vn 0.567787468 0.808920324 0.15252997
vn -0.170109838 0.97353667 0.152607217
vn -0.170109838 0.97353667 0.152607217
vn -0.170109823 0.97353667 0.152607203
vn -0.170109823 0.97353667 0.152607188
vn -0.810546219 0.565457106 0.152555004
vn -0.810546339 0.565457106 0.152555019
vn -0.810546339 0.565457106 0.152555019
vn -0.810546339 0.565457106 0.152555019
vn -0.977088988 -0.14775914 0.153180659
vn -0.977088988 -0.14775914 0.153180644
vn -0.977088988 -0.14775914 0.153180674
vn -0.977088988 -0.14775914 0.153180644
vn -0.537161052 -0.829768956 0.151464894
vn -0.537161052 -0.829768956 0.151464894
vn -0.537160993 -0.829768836 0.15146488
vn -0.537160993 -0.829768836 0.15146488
vn 0.170463994 -0.973493695 0.152485743
vn 0.170464009 -0.973493695 0.152485743
vn 0.170463994 -0.973493695 0.152485743
vn 0.170463979 -0.973493695 0.152485743
vn 0.808905005 -0.567830145 0.152451843
vn 0.808905005 -0.567830145 0.152451843
vn 0.808905005 -0.567830145 0.152451843
vn 0.808905005 -0.567830145 0.152451828
vn -0.795391738 -0.586428106 0.153146937
vn -0.795391738 -0.586428106 0.153146937
vn -0.795391738 -0.586428165 0.153146952
vn -0.795391738 -0.586428106 0.153146937
vn -0.971116781 0.183709636 0.152259156
vn -0.971116781 0.183709636 0.152259141
vn -0.971116781 0.183709651 0.152259126
vn -0.971116781 0.183709636 0.152259141
vn -0.560124457 0.814275444 0.152367681
vn -0.560124516 0.814275444 0.152367696
vn -0.560124457 0.814275444 0.152367681
vn -0.560124457 0.814275444 0.152367696
vn 0.180213183 0.97176522 0.152300611
vn 0.180213198 0.97176522 0.152300626
vn 0.180213213 0.97176522 0.152300626
vn 0.180213198 0.97176522 0.152300611
vn 0.814544678 0.559769511 0.152233288
vn 0.814544678 0.559769511 0.152233288
vn 0.814544678 0.559769511 0.152233288
vn 0.814544678 0.559769511 0.152233303
vn 0.9717924 -0.180162102 0.152188241
vn 0.9717924 -0.180162102 0.152188227
vn 0.9717924 -0.180162117 0.152188241
vn 0.9717924 -0.180162102 0.152188241
vn 0.559767425 -0.814553559 0.152193949
vn 0.559767425 -0.814553559 0.152193949
vn 0.559767425 -0.814553559 0.152193949
vn 0.559767425 -0.814553559 0.152193949
vn -0.206167057 -0.966724396 0.151456371
vn -0.206167072 -0.966724396 0.151456386
vn -0.206167072 -0.966724396 0.151456386
vn -0.206167072 -0.966724396 0.151456386
vn 0.984983385 0.172470525 -0.00785346515
vn 0.984983385 0.172470525 -0.00785346609
vn 0.984983385 0.172470525 -0.00785346609
vn 0.984983385 0.17247051 -0.00785346609
vn 0.574492157 0.818472385 -0.00785660744
vn 0.574492097 0.818472385 -0.00785660651
vn 0.574492097 0.818472385 -0.00785660651
vn 0.574492157 0.818472385 -0.00785660744
vn -0.172120601 0.985044539 -0.00786070712
vn -0.172120601 0.985044539 -0.00786070712
vn -0.172120601 0.985044539 -0.00786070712
vn -0.172120601 0.985044539 -0.00786070712
vn -0.820120871 0.572136402 -0.00785797182
vn -0.820120871 0.572136402 -0.00785797182
vn -0.820120871 0.572136402 -0.00785797182
vn -0.820120871 0.572136402 -0.00785797182
vn -0.988727331 -0.149518982 -0.00789094437
vn -0.988727331 -0.149518996 -0.00789094437
vn -0.988727331 -0.149518996 -0.00789094437
vn -0.988727331 -0.149518982 -0.00789094437
vn -0.543414235 -0.839428425 -0.00780042866
vn -0.543414235 -0.839428425 -0.00780042959
vn -0.543414295 -0.839428425 -0.00780042959
vn -0.543414235 -0.839428425 -0.00780042959
vn 0.172475725 -0.984982431 -0.0078542158
vn 0.172475755 -0.984982431 -0.00785421673
vn 0.172475785 -0.984982431 -0.00785421673
vn 0.17247574 -0.984982431 -0.0078542158
vn 0.818446994 -0.574528217 -0.00785244536
vn 0.818446994 -0.574528396 -0.00785244722
vn 0.818446994 -0.574528277 -0.00785244629
vn 0.818446994 -0.574528337 -0.00785244629
vn -0.804861665 -0.593410075 -0.0078891404
vn -0.804861665 -0.593410075 -0.0078891404
vn -0.804861665 -0.593410015 -0.00788913947
vn -0.804861665 -0.593410075 -0.0078891404
vn -0.982542872 0.185871199 -0.00784238335
vn -0.982542872 0.185871214 -0.00784238428
vn -0.982542872 0.185871214 -0.00784238428
vn -0.982542872 0.185871229 -0.00784238428
vn -0.56672442 0.823870003 -0.00784807466
vn -0.566724479 0.823870003 -0.00784807559
vn -0.56672442 0.823870003 -0.00784807466
vn -0.566724479 0.823870003 -0.00784807559
vn 0.182334676 0.983205259 -0.00784453936
vn 0.182334691 0.983205259 -0.00784453936
vn 0.182334661 0.983205259 -0.00784453936
vn 0.182334661 0.983205259 -0.00784453936
vn 0.824125171 0.56635344 -0.0078409519
vn 0.824125171 0.56635344 -0.0078409519
vn 0.824125171 0.56635344 -0.0078409519
vn 0.824125171 0.56635344 -0.00784095097
vn 0.983215392 -0.182279751 -0.0078385463
vn 0.983215392 -0.182279766 -0.0078385463
vn 0.983215392 -0.182279766 -0.0078385463
vn 0.983215392 -0.182279766 -0.00783854537
vn 0.566347778 -0.824129105 -0.00783884525
vn 0.566347778 -0.824129164 -0.00783884432
vn 0.566347778 -0.824129105 -0.00783884525
vn 0.566347837 -0.824129105 -0.00783884525
vn -0.208566889 -0.977976918 -0.00779995508
vn -0.208566889 -0.977976918 -0.00779995508
vn -0.208566889 -0.977976918 -0.00779995508
vn -0.208566874 -0.977976918 -0.00779995508
g ETFX_Rocket2_0
f 3/3/3 2/2/2 1/1/1
f 6/6/6 5/5/5 4/4/4
f 9/9/9 8/8/8 7/7/7
f 12/12/12 11/11/11 10/10/10
f 15/15/15 14/14/14 13/13/13
f 18/18/18 17/17/17 16/16/16
f 21/21/21 20/20/20 19/19/19
f 24/24/24 23/23/23 22/22/22
f 27/27/27 26/26/26 25/25/25
f 30/30/30 29/29/29 28/28/28
f 33/33/33 32/32/32 31/31/31
f 36/36/36 35/35/35 34/34/34
f 39/39/39 38/38/38 37/37/37
f 42/42/42 41/41/41 40/40/40
f 45/45/45 44/44/44 43/43/43
f 48/48/48 47/47/47 46/46/46
f 51/51/51 50/50/50 49/49/49
f 52/52/52 51/51/51 49/49/49
f 55/55/55 54/54/54 53/53/53
f 56/56/56 55/55/55 53/53/53
f 59/59/59 58/58/58 57/57/57
f 60/60/60 59/59/59 57/57/57
f 63/63/63 62/62/62 61/61/61
f 64/64/64 63/63/63 61/61/61
f 67/67/67 66/66/66 65/65/65
f 68/68/68 67/67/67 65/65/65
f 71/71/71 70/70/70 69/69/69
f 72/72/72 71/71/71 69/69/69
f 75/75/75 74/74/74 73/73/73
f 76/76/76 75/75/75 73/73/73
f 79/79/79 78/78/78 77/77/77
f 80/80/80 79/79/79 77/77/77
f 83/83/83 82/82/82 81/81/81
f 84/84/84 83/83/83 81/81/81
f 87/87/87 86/86/86 85/85/85
f 88/88/88 87/87/87 85/85/85
f 91/91/91 90/90/90 89/89/89
f 92/92/92 91/91/91 89/89/89
f 95/95/95 94/94/94 93/93/93
f 96/96/96 95/95/95 93/93/93
f 99/99/99 98/98/98 97/97/97
f 100/100/100 99/99/99 97/97/97
f 103/103/103 102/102/102 101/101/101
f 104/104/104 103/103/103 101/101/101
f 107/107/107 106/106/106 105/105/105
f 108/108/108 107/107/107 105/105/105
f 111/111/111 110/110/110 109/109/109
f 112/112/112 111/111/111 109/109/109
f 115/115/115 114/114/114 113/113/113
f 116/116/116 115/115/115 113/113/113
f 119/119/119 118/118/118 117/117/117
f 120/120/120 119/119/119 117/117/117
f 123/123/123 122/122/122 121/121/121
f 124/124/124 123/123/123 121/121/121
f 127/127/127 126/126/126 125/125/125
f 128/128/128 127/127/127 125/125/125
f 131/131/131 130/130/130 129/129/129
f 132/132/132 131/131/131 129/129/129
f 135/135/135 134/134/134 133/133/133
f 136/136/136 135/135/135 133/133/133
f 139/139/139 138/138/138 137/137/137
f 140/140/140 139/139/139 137/137/137
f 143/143/143 142/142/142 141/141/141
f 144/144/144 143/143/143 141/141/141
f 147/147/147 146/146/146 145/145/145
f 148/148/148 147/147/147 145/145/145
f 151/151/151 150/150/150 149/149/149
f 152/152/152 151/151/151 149/149/149
f 155/155/155 154/154/154 153/153/153
f 156/156/156 155/155/155 153/153/153
f 159/159/159 158/158/158 157/157/157
f 160/160/160 159/159/159 157/157/157
f 163/163/163 162/162/162 161/161/161
f 164/164/164 163/163/163 161/161/161
f 167/167/167 166/166/166 165/165/165
f 168/168/168 167/167/167 165/165/165
f 171/171/171 170/170/170 169/169/169
f 172/172/172 171/171/171 169/169/169
f 175/175/175 174/174/174 173/173/173
f 176/176/176 175/175/175 173/173/173
f 179/179/179 178/178/178 177/177/177
f 180/180/180 179/179/179 177/177/177
f 183/183/183 182/182/182 181/181/181
f 184/184/184 183/183/183 181/181/181
f 187/187/187 186/186/186 185/185/185
f 188/188/188 187/187/187 185/185/185
f 191/191/191 190/190/190 189/189/189
f 192/192/192 191/191/191 189/189/189
f 195/195/195 194/194/194 193/193/193
f 196/196/196 195/195/195 193/193/193
f 199/199/199 198/198/198 197/197/197
f 200/200/200 199/199/199 197/197/197
f 203/203/203 202/202/202 201/201/201
f 204/204/204 203/203/203 201/201/201
f 207/207/207 206/206/206 205/205/205
f 208/208/208 207/207/207 205/205/205
f 211/211/211 210/210/210 209/209/209
f 212/212/212 211/211/211 209/209/209
f 215/215/215 214/214/214 213/213/213
f 216/216/216 215/215/215 213/213/213
f 219/219/219 218/218/218 217/217/217
f 220/220/220 219/219/219 217/217/217
f 223/223/223 222/222/222 221/221/221
f 224/224/224 223/223/223 221/221/221
f 227/227/227 226/226/226 225/225/225
f 228/228/228 227/227/227 225/225/225
f 231/231/231 230/230/230 229/229/229
f 232/232/232 231/231/231 229/229/229
f 235/235/235 234/234/234 233/233/233
f 236/236/236 235/235/235 233/233/233
f 239/239/239 238/238/238 237/237/237
f 240/240/240 239/239/239 237/237/237
f 243/243/243 242/242/242 241/241/241
f 244/244/244 243/243/243 241/241/241
f 247/247/247 246/246/246 245/245/245
f 248/248/248 247/247/247 245/245/245
f 251/251/251 250/250/250 249/249/249
f 252/252/252 251/251/251 249/249/249
f 255/255/255 254/254/254 253/253/253
f 256/256/256 255/255/255 253/253/253
f 259/259/259 258/258/258 257/257/257
f 260/260/260 259/259/259 257/257/257
f 263/263/263 262/262/262 261/261/261
f 264/264/264 263/263/263 261/261/261
f 267/267/267 266/266/266 265/265/265
f 268/268/268 267/267/267 265/265/265
f 271/271/271 270/270/270 269/269/269
f 272/272/272 271/271/271 269/269/269
f 275/275/275 274/274/274 273/273/273
f 276/276/276 275/275/275 273/273/273
f 279/279/279 278/278/278 277/277/277
f 280/280/280 279/279/279 277/277/277
f 283/283/283 282/282/282 281/281/281
f 284/284/284 283/283/283 281/281/281
f 287/287/287 286/286/286 285/285/285
f 288/288/288 287/287/287 285/285/285
f 291/291/291 290/290/290 289/289/289
f 292/292/292 291/291/291 289/289/289
f 295/295/295 294/294/294 293/293/293
f 296/296/296 295/295/295 293/293/293
f 299/299/299 298/298/298 297/297/297
f 300/300/300 299/299/299 297/297/297
f 303/303/303 302/302/302 301/301/301
f 304/304/304 303/303/303 301/301/301
f 307/307/307 306/306/306 305/305/305
f 308/308/308 307/307/307 305/305/305
f 311/311/311 310/310/310 309/309/309
f 312/312/312 311/311/311 309/309/309
f 315/315/315 314/314/314 313/313/313
f 316/316/316 315/315/315 313/313/313
f 319/319/319 318/318/318 317/317/317
f 320/320/320 319/319/319 317/317/317
f 323/323/323 322/322/322 321/321/321
f 324/324/324 323/323/323 321/321/321
f 327/327/327 326/326/326 325/325/325
f 328/328/328 327/327/327 325/325/325
f 331/331/331 330/330/330 329/329/329
f 332/332/332 331/331/331 329/329/329
f 335/335/335 334/334/334 333/333/333
f 336/336/336 335/335/335 333/333/333
f 339/339/339 338/338/338 337/337/337
f 340/340/340 339/339/339 337/337/337
f 343/343/343 342/342/342 341/341/341
f 344/344/344 343/343/343 341/341/341
f 347/347/347 346/346/346 345/345/345
f 348/348/348 347/347/347 345/345/345
f 351/351/351 350/350/350 349/349/349
f 352/352/352 351/351/351 349/349/349
f 355/355/355 354/354/354 353/353/353
f 356/356/356 355/355/355 353/353/353
f 359/359/359 358/358/358 357/357/357
f 360/360/360 359/359/359 357/357/357
f 363/363/363 362/362/362 361/361/361
f 364/364/364 363/363/363 361/361/361
f 367/367/367 366/366/366 365/365/365
f 368/368/368 367/367/367 365/365/365
